<?xml version="1.0" encoding="utf-8" standalone="no"?>
<!DOCTYPE svg PUBLIC "-//W3C//DTD SVG 1.1//EN"
  "http://www.w3.org/Graphics/SVG/1.1/DTD/svg11.dtd">
<!-- Created with matplotlib (https://matplotlib.org/) -->
<svg height="288pt" version="1.1" viewBox="0 0 432 288" width="432pt" xmlns="http://www.w3.org/2000/svg" xmlns:xlink="http://www.w3.org/1999/xlink">
 <metadata>
  <rdf:RDF xmlns:cc="http://creativecommons.org/ns#" xmlns:dc="http://purl.org/dc/elements/1.1/" xmlns:rdf="http://www.w3.org/1999/02/22-rdf-syntax-ns#">
   <cc:Work>
    <dc:type rdf:resource="http://purl.org/dc/dcmitype/StillImage"/>
    <dc:date>2021-05-01T19:27:35.604708</dc:date>
    <dc:format>image/svg+xml</dc:format>
    <dc:creator>
     <cc:Agent>
      <dc:title>Matplotlib v3.3.3, https://matplotlib.org/</dc:title>
     </cc:Agent>
    </dc:creator>
   </cc:Work>
  </rdf:RDF>
 </metadata>
 <defs>
  <style type="text/css">*{stroke-linecap:butt;stroke-linejoin:round;}</style>
 </defs>
 <g id="figure_1">
  <g id="patch_1">
   <path d="M 0 288 
L 432 288 
L 432 0 
L 0 0 
z
" style="fill:none;"/>
  </g>
  <g id="axes_1">
   <g id="patch_2">
    <path d="M 51.3625 242.2 
L 381.45 242.2 
L 381.45 14.8 
L 51.3625 14.8 
z
" style="fill:#ffffff;"/>
   </g>
   <g id="matplotlib.axis_1">
    <g id="xtick_1">
     <g id="line2d_1">
      <path clip-path="url(#p6e3fc92374)" d="M 66.366477 242.2 
L 66.366477 14.8 
" style="fill:none;stroke:#b0b0b0;stroke-linecap:square;stroke-width:0.8;"/>
     </g>
     <g id="line2d_2">
      <defs>
       <path d="M 0 0 
L 0 3.5 
" id="md5713475bf" style="stroke:#000000;stroke-width:0.8;"/>
      </defs>
      <g>
       <use style="stroke:#000000;stroke-width:0.8;" x="66.366477" xlink:href="#md5713475bf" y="242.2"/>
      </g>
     </g>
     <g id="text_1">
      <!-- 0 -->
      <g transform="translate(63.185227 256.798437)scale(0.1 -0.1)">
       <defs>
        <path d="M 31.78125 66.40625 
Q 24.171875 66.40625 20.328125 58.90625 
Q 16.5 51.421875 16.5 36.375 
Q 16.5 21.390625 20.328125 13.890625 
Q 24.171875 6.390625 31.78125 6.390625 
Q 39.453125 6.390625 43.28125 13.890625 
Q 47.125 21.390625 47.125 36.375 
Q 47.125 51.421875 43.28125 58.90625 
Q 39.453125 66.40625 31.78125 66.40625 
z
M 31.78125 74.21875 
Q 44.046875 74.21875 50.515625 64.515625 
Q 56.984375 54.828125 56.984375 36.375 
Q 56.984375 17.96875 50.515625 8.265625 
Q 44.046875 -1.421875 31.78125 -1.421875 
Q 19.53125 -1.421875 13.0625 8.265625 
Q 6.59375 17.96875 6.59375 36.375 
Q 6.59375 54.828125 13.0625 64.515625 
Q 19.53125 74.21875 31.78125 74.21875 
z
" id="DejaVuSans-48"/>
       </defs>
       <use xlink:href="#DejaVuSans-48"/>
      </g>
     </g>
    </g>
    <g id="xtick_2">
     <g id="line2d_3">
      <path clip-path="url(#p6e3fc92374)" d="M 119.95211 242.2 
L 119.95211 14.8 
" style="fill:none;stroke:#b0b0b0;stroke-linecap:square;stroke-width:0.8;"/>
     </g>
     <g id="line2d_4">
      <g>
       <use style="stroke:#000000;stroke-width:0.8;" x="119.95211" xlink:href="#md5713475bf" y="242.2"/>
      </g>
     </g>
     <g id="text_2">
      <!-- 5 -->
      <g transform="translate(116.77086 256.798437)scale(0.1 -0.1)">
       <defs>
        <path d="M 10.796875 72.90625 
L 49.515625 72.90625 
L 49.515625 64.59375 
L 19.828125 64.59375 
L 19.828125 46.734375 
Q 21.96875 47.46875 24.109375 47.828125 
Q 26.265625 48.1875 28.421875 48.1875 
Q 40.625 48.1875 47.75 41.5 
Q 54.890625 34.8125 54.890625 23.390625 
Q 54.890625 11.625 47.5625 5.09375 
Q 40.234375 -1.421875 26.90625 -1.421875 
Q 22.3125 -1.421875 17.546875 -0.640625 
Q 12.796875 0.140625 7.71875 1.703125 
L 7.71875 11.625 
Q 12.109375 9.234375 16.796875 8.0625 
Q 21.484375 6.890625 26.703125 6.890625 
Q 35.15625 6.890625 40.078125 11.328125 
Q 45.015625 15.765625 45.015625 23.390625 
Q 45.015625 31 40.078125 35.4375 
Q 35.15625 39.890625 26.703125 39.890625 
Q 22.75 39.890625 18.8125 39.015625 
Q 14.890625 38.140625 10.796875 36.28125 
z
" id="DejaVuSans-53"/>
       </defs>
       <use xlink:href="#DejaVuSans-53"/>
      </g>
     </g>
    </g>
    <g id="xtick_3">
     <g id="line2d_5">
      <path clip-path="url(#p6e3fc92374)" d="M 173.537744 242.2 
L 173.537744 14.8 
" style="fill:none;stroke:#b0b0b0;stroke-linecap:square;stroke-width:0.8;"/>
     </g>
     <g id="line2d_6">
      <g>
       <use style="stroke:#000000;stroke-width:0.8;" x="173.537744" xlink:href="#md5713475bf" y="242.2"/>
      </g>
     </g>
     <g id="text_3">
      <!-- 10 -->
      <g transform="translate(167.175244 256.798437)scale(0.1 -0.1)">
       <defs>
        <path d="M 12.40625 8.296875 
L 28.515625 8.296875 
L 28.515625 63.921875 
L 10.984375 60.40625 
L 10.984375 69.390625 
L 28.421875 72.90625 
L 38.28125 72.90625 
L 38.28125 8.296875 
L 54.390625 8.296875 
L 54.390625 0 
L 12.40625 0 
z
" id="DejaVuSans-49"/>
       </defs>
       <use xlink:href="#DejaVuSans-49"/>
       <use x="63.623047" xlink:href="#DejaVuSans-48"/>
      </g>
     </g>
    </g>
    <g id="xtick_4">
     <g id="line2d_7">
      <path clip-path="url(#p6e3fc92374)" d="M 227.123377 242.2 
L 227.123377 14.8 
" style="fill:none;stroke:#b0b0b0;stroke-linecap:square;stroke-width:0.8;"/>
     </g>
     <g id="line2d_8">
      <g>
       <use style="stroke:#000000;stroke-width:0.8;" x="227.123377" xlink:href="#md5713475bf" y="242.2"/>
      </g>
     </g>
     <g id="text_4">
      <!-- 15 -->
      <g transform="translate(220.760877 256.798437)scale(0.1 -0.1)">
       <use xlink:href="#DejaVuSans-49"/>
       <use x="63.623047" xlink:href="#DejaVuSans-53"/>
      </g>
     </g>
    </g>
    <g id="xtick_5">
     <g id="line2d_9">
      <path clip-path="url(#p6e3fc92374)" d="M 280.70901 242.2 
L 280.70901 14.8 
" style="fill:none;stroke:#b0b0b0;stroke-linecap:square;stroke-width:0.8;"/>
     </g>
     <g id="line2d_10">
      <g>
       <use style="stroke:#000000;stroke-width:0.8;" x="280.70901" xlink:href="#md5713475bf" y="242.2"/>
      </g>
     </g>
     <g id="text_5">
      <!-- 20 -->
      <g transform="translate(274.34651 256.798437)scale(0.1 -0.1)">
       <defs>
        <path d="M 19.1875 8.296875 
L 53.609375 8.296875 
L 53.609375 0 
L 7.328125 0 
L 7.328125 8.296875 
Q 12.9375 14.109375 22.625 23.890625 
Q 32.328125 33.6875 34.8125 36.53125 
Q 39.546875 41.84375 41.421875 45.53125 
Q 43.3125 49.21875 43.3125 52.78125 
Q 43.3125 58.59375 39.234375 62.25 
Q 35.15625 65.921875 28.609375 65.921875 
Q 23.96875 65.921875 18.8125 64.3125 
Q 13.671875 62.703125 7.8125 59.421875 
L 7.8125 69.390625 
Q 13.765625 71.78125 18.9375 73 
Q 24.125 74.21875 28.421875 74.21875 
Q 39.75 74.21875 46.484375 68.546875 
Q 53.21875 62.890625 53.21875 53.421875 
Q 53.21875 48.921875 51.53125 44.890625 
Q 49.859375 40.875 45.40625 35.40625 
Q 44.1875 33.984375 37.640625 27.21875 
Q 31.109375 20.453125 19.1875 8.296875 
z
" id="DejaVuSans-50"/>
       </defs>
       <use xlink:href="#DejaVuSans-50"/>
       <use x="63.623047" xlink:href="#DejaVuSans-48"/>
      </g>
     </g>
    </g>
    <g id="xtick_6">
     <g id="line2d_11">
      <path clip-path="url(#p6e3fc92374)" d="M 334.294643 242.2 
L 334.294643 14.8 
" style="fill:none;stroke:#b0b0b0;stroke-linecap:square;stroke-width:0.8;"/>
     </g>
     <g id="line2d_12">
      <g>
       <use style="stroke:#000000;stroke-width:0.8;" x="334.294643" xlink:href="#md5713475bf" y="242.2"/>
      </g>
     </g>
     <g id="text_6">
      <!-- 25 -->
      <g transform="translate(327.932143 256.798437)scale(0.1 -0.1)">
       <use xlink:href="#DejaVuSans-50"/>
       <use x="63.623047" xlink:href="#DejaVuSans-53"/>
      </g>
     </g>
    </g>
    <g id="text_7">
     <!-- Tiempo [$\mathrm{s}$] -->
     <g transform="translate(189.65625 270.478125)scale(0.1 -0.1)">
      <defs>
       <path d="M -0.296875 72.90625 
L 61.375 72.90625 
L 61.375 64.59375 
L 35.5 64.59375 
L 35.5 0 
L 25.59375 0 
L 25.59375 64.59375 
L -0.296875 64.59375 
z
" id="DejaVuSans-84"/>
       <path d="M 9.421875 54.6875 
L 18.40625 54.6875 
L 18.40625 0 
L 9.421875 0 
z
M 9.421875 75.984375 
L 18.40625 75.984375 
L 18.40625 64.59375 
L 9.421875 64.59375 
z
" id="DejaVuSans-105"/>
       <path d="M 56.203125 29.59375 
L 56.203125 25.203125 
L 14.890625 25.203125 
Q 15.484375 15.921875 20.484375 11.0625 
Q 25.484375 6.203125 34.421875 6.203125 
Q 39.59375 6.203125 44.453125 7.46875 
Q 49.3125 8.734375 54.109375 11.28125 
L 54.109375 2.78125 
Q 49.265625 0.734375 44.1875 -0.34375 
Q 39.109375 -1.421875 33.890625 -1.421875 
Q 20.796875 -1.421875 13.15625 6.1875 
Q 5.515625 13.8125 5.515625 26.8125 
Q 5.515625 40.234375 12.765625 48.109375 
Q 20.015625 56 32.328125 56 
Q 43.359375 56 49.78125 48.890625 
Q 56.203125 41.796875 56.203125 29.59375 
z
M 47.21875 32.234375 
Q 47.125 39.59375 43.09375 43.984375 
Q 39.0625 48.390625 32.421875 48.390625 
Q 24.90625 48.390625 20.390625 44.140625 
Q 15.875 39.890625 15.1875 32.171875 
z
" id="DejaVuSans-101"/>
       <path d="M 52 44.1875 
Q 55.375 50.25 60.0625 53.125 
Q 64.75 56 71.09375 56 
Q 79.640625 56 84.28125 50.015625 
Q 88.921875 44.046875 88.921875 33.015625 
L 88.921875 0 
L 79.890625 0 
L 79.890625 32.71875 
Q 79.890625 40.578125 77.09375 44.375 
Q 74.3125 48.1875 68.609375 48.1875 
Q 61.625 48.1875 57.5625 43.546875 
Q 53.515625 38.921875 53.515625 30.90625 
L 53.515625 0 
L 44.484375 0 
L 44.484375 32.71875 
Q 44.484375 40.625 41.703125 44.40625 
Q 38.921875 48.1875 33.109375 48.1875 
Q 26.21875 48.1875 22.15625 43.53125 
Q 18.109375 38.875 18.109375 30.90625 
L 18.109375 0 
L 9.078125 0 
L 9.078125 54.6875 
L 18.109375 54.6875 
L 18.109375 46.1875 
Q 21.1875 51.21875 25.484375 53.609375 
Q 29.78125 56 35.6875 56 
Q 41.65625 56 45.828125 52.96875 
Q 50 49.953125 52 44.1875 
z
" id="DejaVuSans-109"/>
       <path d="M 18.109375 8.203125 
L 18.109375 -20.796875 
L 9.078125 -20.796875 
L 9.078125 54.6875 
L 18.109375 54.6875 
L 18.109375 46.390625 
Q 20.953125 51.265625 25.265625 53.625 
Q 29.59375 56 35.59375 56 
Q 45.5625 56 51.78125 48.09375 
Q 58.015625 40.1875 58.015625 27.296875 
Q 58.015625 14.40625 51.78125 6.484375 
Q 45.5625 -1.421875 35.59375 -1.421875 
Q 29.59375 -1.421875 25.265625 0.953125 
Q 20.953125 3.328125 18.109375 8.203125 
z
M 48.6875 27.296875 
Q 48.6875 37.203125 44.609375 42.84375 
Q 40.53125 48.484375 33.40625 48.484375 
Q 26.265625 48.484375 22.1875 42.84375 
Q 18.109375 37.203125 18.109375 27.296875 
Q 18.109375 17.390625 22.1875 11.75 
Q 26.265625 6.109375 33.40625 6.109375 
Q 40.53125 6.109375 44.609375 11.75 
Q 48.6875 17.390625 48.6875 27.296875 
z
" id="DejaVuSans-112"/>
       <path d="M 30.609375 48.390625 
Q 23.390625 48.390625 19.1875 42.75 
Q 14.984375 37.109375 14.984375 27.296875 
Q 14.984375 17.484375 19.15625 11.84375 
Q 23.34375 6.203125 30.609375 6.203125 
Q 37.796875 6.203125 41.984375 11.859375 
Q 46.1875 17.53125 46.1875 27.296875 
Q 46.1875 37.015625 41.984375 42.703125 
Q 37.796875 48.390625 30.609375 48.390625 
z
M 30.609375 56 
Q 42.328125 56 49.015625 48.375 
Q 55.71875 40.765625 55.71875 27.296875 
Q 55.71875 13.875 49.015625 6.21875 
Q 42.328125 -1.421875 30.609375 -1.421875 
Q 18.84375 -1.421875 12.171875 6.21875 
Q 5.515625 13.875 5.515625 27.296875 
Q 5.515625 40.765625 12.171875 48.375 
Q 18.84375 56 30.609375 56 
z
" id="DejaVuSans-111"/>
       <path id="DejaVuSans-32"/>
       <path d="M 8.59375 75.984375 
L 29.296875 75.984375 
L 29.296875 69 
L 17.578125 69 
L 17.578125 -6.203125 
L 29.296875 -6.203125 
L 29.296875 -13.1875 
L 8.59375 -13.1875 
z
" id="DejaVuSans-91"/>
       <path d="M 44.28125 53.078125 
L 44.28125 44.578125 
Q 40.484375 46.53125 36.375 47.5 
Q 32.28125 48.484375 27.875 48.484375 
Q 21.1875 48.484375 17.84375 46.4375 
Q 14.5 44.390625 14.5 40.28125 
Q 14.5 37.15625 16.890625 35.375 
Q 19.28125 33.59375 26.515625 31.984375 
L 29.59375 31.296875 
Q 39.15625 29.25 43.1875 25.515625 
Q 47.21875 21.78125 47.21875 15.09375 
Q 47.21875 7.46875 41.1875 3.015625 
Q 35.15625 -1.421875 24.609375 -1.421875 
Q 20.21875 -1.421875 15.453125 -0.5625 
Q 10.6875 0.296875 5.421875 2 
L 5.421875 11.28125 
Q 10.40625 8.6875 15.234375 7.390625 
Q 20.0625 6.109375 24.8125 6.109375 
Q 31.15625 6.109375 34.5625 8.28125 
Q 37.984375 10.453125 37.984375 14.40625 
Q 37.984375 18.0625 35.515625 20.015625 
Q 33.0625 21.96875 24.703125 23.78125 
L 21.578125 24.515625 
Q 13.234375 26.265625 9.515625 29.90625 
Q 5.8125 33.546875 5.8125 39.890625 
Q 5.8125 47.609375 11.28125 51.796875 
Q 16.75 56 26.8125 56 
Q 31.78125 56 36.171875 55.265625 
Q 40.578125 54.546875 44.28125 53.078125 
z
" id="DejaVuSans-115"/>
       <path d="M 30.421875 75.984375 
L 30.421875 -13.1875 
L 9.71875 -13.1875 
L 9.71875 -6.203125 
L 21.390625 -6.203125 
L 21.390625 69 
L 9.71875 69 
L 9.71875 75.984375 
z
" id="DejaVuSans-93"/>
      </defs>
      <use transform="translate(0 0.015625)" xlink:href="#DejaVuSans-84"/>
      <use transform="translate(61.083984 0.015625)" xlink:href="#DejaVuSans-105"/>
      <use transform="translate(88.867188 0.015625)" xlink:href="#DejaVuSans-101"/>
      <use transform="translate(150.390625 0.015625)" xlink:href="#DejaVuSans-109"/>
      <use transform="translate(247.802734 0.015625)" xlink:href="#DejaVuSans-112"/>
      <use transform="translate(311.279297 0.015625)" xlink:href="#DejaVuSans-111"/>
      <use transform="translate(372.460938 0.015625)" xlink:href="#DejaVuSans-32"/>
      <use transform="translate(404.248047 0.015625)" xlink:href="#DejaVuSans-91"/>
      <use transform="translate(443.261719 0.015625)" xlink:href="#DejaVuSans-115"/>
      <use transform="translate(495.361328 0.015625)" xlink:href="#DejaVuSans-93"/>
     </g>
    </g>
   </g>
   <g id="matplotlib.axis_2">
    <g id="ytick_1">
     <g id="line2d_13">
      <path clip-path="url(#p6e3fc92374)" d="M 51.3625 219.46 
L 381.45 219.46 
" style="fill:none;stroke:#b0b0b0;stroke-linecap:square;stroke-width:0.8;"/>
     </g>
     <g id="line2d_14">
      <defs>
       <path d="M 0 0 
L -3.5 0 
" id="m4e590ed373" style="stroke:#000000;stroke-width:0.8;"/>
      </defs>
      <g>
       <use style="stroke:#000000;stroke-width:0.8;" x="51.3625" xlink:href="#m4e590ed373" y="219.46"/>
      </g>
     </g>
     <g id="text_8">
      <!-- 0 -->
      <g transform="translate(38 223.259219)scale(0.1 -0.1)">
       <use xlink:href="#DejaVuSans-48"/>
      </g>
     </g>
    </g>
    <g id="ytick_2">
     <g id="line2d_15">
      <path clip-path="url(#p6e3fc92374)" d="M 51.3625 60.28 
L 381.45 60.28 
" style="fill:none;stroke:#b0b0b0;stroke-linecap:square;stroke-width:0.8;"/>
     </g>
     <g id="line2d_16">
      <g>
       <use style="stroke:#000000;stroke-width:0.8;" x="51.3625" xlink:href="#m4e590ed373" y="60.28"/>
      </g>
     </g>
     <g id="text_9">
      <!-- 35 -->
      <g transform="translate(31.6375 64.079219)scale(0.1 -0.1)">
       <defs>
        <path d="M 40.578125 39.3125 
Q 47.65625 37.796875 51.625 33 
Q 55.609375 28.21875 55.609375 21.1875 
Q 55.609375 10.40625 48.1875 4.484375 
Q 40.765625 -1.421875 27.09375 -1.421875 
Q 22.515625 -1.421875 17.65625 -0.515625 
Q 12.796875 0.390625 7.625 2.203125 
L 7.625 11.71875 
Q 11.71875 9.328125 16.59375 8.109375 
Q 21.484375 6.890625 26.8125 6.890625 
Q 36.078125 6.890625 40.9375 10.546875 
Q 45.796875 14.203125 45.796875 21.1875 
Q 45.796875 27.640625 41.28125 31.265625 
Q 36.765625 34.90625 28.71875 34.90625 
L 20.21875 34.90625 
L 20.21875 43.015625 
L 29.109375 43.015625 
Q 36.375 43.015625 40.234375 45.921875 
Q 44.09375 48.828125 44.09375 54.296875 
Q 44.09375 59.90625 40.109375 62.90625 
Q 36.140625 65.921875 28.71875 65.921875 
Q 24.65625 65.921875 20.015625 65.03125 
Q 15.375 64.15625 9.8125 62.3125 
L 9.8125 71.09375 
Q 15.4375 72.65625 20.34375 73.4375 
Q 25.25 74.21875 29.59375 74.21875 
Q 40.828125 74.21875 47.359375 69.109375 
Q 53.90625 64.015625 53.90625 55.328125 
Q 53.90625 49.265625 50.4375 45.09375 
Q 46.96875 40.921875 40.578125 39.3125 
z
" id="DejaVuSans-51"/>
       </defs>
       <use xlink:href="#DejaVuSans-51"/>
       <use x="63.623047" xlink:href="#DejaVuSans-53"/>
      </g>
     </g>
    </g>
    <g id="ytick_3">
     <g id="line2d_17">
      <path clip-path="url(#p6e3fc92374)" d="M 51.3625 196.72 
L 381.45 196.72 
" style="fill:none;stroke:#b0b0b0;stroke-linecap:square;stroke-width:0.8;"/>
     </g>
     <g id="line2d_18">
      <g>
       <use style="stroke:#000000;stroke-width:0.8;" x="51.3625" xlink:href="#m4e590ed373" y="196.72"/>
      </g>
     </g>
     <g id="text_10">
      <!-- 5 -->
      <g transform="translate(38 200.519219)scale(0.1 -0.1)">
       <use xlink:href="#DejaVuSans-53"/>
      </g>
     </g>
    </g>
    <g id="ytick_4">
     <g id="line2d_19">
      <path clip-path="url(#p6e3fc92374)" d="M 51.3625 37.54 
L 381.45 37.54 
" style="fill:none;stroke:#b0b0b0;stroke-linecap:square;stroke-width:0.8;"/>
     </g>
     <g id="line2d_20">
      <g>
       <use style="stroke:#000000;stroke-width:0.8;" x="51.3625" xlink:href="#m4e590ed373" y="37.54"/>
      </g>
     </g>
     <g id="text_11">
      <!-- 40 -->
      <g transform="translate(31.6375 41.339219)scale(0.1 -0.1)">
       <defs>
        <path d="M 37.796875 64.3125 
L 12.890625 25.390625 
L 37.796875 25.390625 
z
M 35.203125 72.90625 
L 47.609375 72.90625 
L 47.609375 25.390625 
L 58.015625 25.390625 
L 58.015625 17.1875 
L 47.609375 17.1875 
L 47.609375 0 
L 37.796875 0 
L 37.796875 17.1875 
L 4.890625 17.1875 
L 4.890625 26.703125 
z
" id="DejaVuSans-52"/>
       </defs>
       <use xlink:href="#DejaVuSans-52"/>
       <use x="63.623047" xlink:href="#DejaVuSans-48"/>
      </g>
     </g>
    </g>
    <g id="ytick_5">
     <g id="line2d_21">
      <path clip-path="url(#p6e3fc92374)" d="M 51.3625 173.98 
L 381.45 173.98 
" style="fill:none;stroke:#b0b0b0;stroke-linecap:square;stroke-width:0.8;"/>
     </g>
     <g id="line2d_22">
      <g>
       <use style="stroke:#000000;stroke-width:0.8;" x="51.3625" xlink:href="#m4e590ed373" y="173.98"/>
      </g>
     </g>
     <g id="text_12">
      <!-- 10 -->
      <g transform="translate(31.6375 177.779219)scale(0.1 -0.1)">
       <use xlink:href="#DejaVuSans-49"/>
       <use x="63.623047" xlink:href="#DejaVuSans-48"/>
      </g>
     </g>
    </g>
    <g id="ytick_6">
     <g id="line2d_23">
      <path clip-path="url(#p6e3fc92374)" d="M 51.3625 14.8 
L 381.45 14.8 
" style="fill:none;stroke:#b0b0b0;stroke-linecap:square;stroke-width:0.8;"/>
     </g>
     <g id="line2d_24">
      <g>
       <use style="stroke:#000000;stroke-width:0.8;" x="51.3625" xlink:href="#m4e590ed373" y="14.8"/>
      </g>
     </g>
     <g id="text_13">
      <!-- 45 -->
      <g transform="translate(31.6375 18.599219)scale(0.1 -0.1)">
       <use xlink:href="#DejaVuSans-52"/>
       <use x="63.623047" xlink:href="#DejaVuSans-53"/>
      </g>
     </g>
    </g>
    <g id="ytick_7">
     <g id="line2d_25">
      <path clip-path="url(#p6e3fc92374)" d="M 51.3625 151.24 
L 381.45 151.24 
" style="fill:none;stroke:#b0b0b0;stroke-linecap:square;stroke-width:0.8;"/>
     </g>
     <g id="line2d_26">
      <g>
       <use style="stroke:#000000;stroke-width:0.8;" x="51.3625" xlink:href="#m4e590ed373" y="151.24"/>
      </g>
     </g>
     <g id="text_14">
      <!-- 15 -->
      <g transform="translate(31.6375 155.039219)scale(0.1 -0.1)">
       <use xlink:href="#DejaVuSans-49"/>
       <use x="63.623047" xlink:href="#DejaVuSans-53"/>
      </g>
     </g>
    </g>
    <g id="ytick_8">
     <g id="line2d_27">
      <path clip-path="url(#p6e3fc92374)" d="M 51.3625 128.5 
L 381.45 128.5 
" style="fill:none;stroke:#b0b0b0;stroke-linecap:square;stroke-width:0.8;"/>
     </g>
     <g id="line2d_28">
      <g>
       <use style="stroke:#000000;stroke-width:0.8;" x="51.3625" xlink:href="#m4e590ed373" y="128.5"/>
      </g>
     </g>
     <g id="text_15">
      <!-- 20 -->
      <g transform="translate(31.6375 132.299219)scale(0.1 -0.1)">
       <use xlink:href="#DejaVuSans-50"/>
       <use x="63.623047" xlink:href="#DejaVuSans-48"/>
      </g>
     </g>
    </g>
    <g id="ytick_9">
     <g id="line2d_29">
      <path clip-path="url(#p6e3fc92374)" d="M 51.3625 105.76 
L 381.45 105.76 
" style="fill:none;stroke:#b0b0b0;stroke-linecap:square;stroke-width:0.8;"/>
     </g>
     <g id="line2d_30">
      <g>
       <use style="stroke:#000000;stroke-width:0.8;" x="51.3625" xlink:href="#m4e590ed373" y="105.76"/>
      </g>
     </g>
     <g id="text_16">
      <!-- 25 -->
      <g transform="translate(31.6375 109.559219)scale(0.1 -0.1)">
       <use xlink:href="#DejaVuSans-50"/>
       <use x="63.623047" xlink:href="#DejaVuSans-53"/>
      </g>
     </g>
    </g>
    <g id="ytick_10">
     <g id="line2d_31">
      <path clip-path="url(#p6e3fc92374)" d="M 51.3625 242.2 
L 381.45 242.2 
" style="fill:none;stroke:#b0b0b0;stroke-linecap:square;stroke-width:0.8;"/>
     </g>
     <g id="line2d_32">
      <g>
       <use style="stroke:#000000;stroke-width:0.8;" x="51.3625" xlink:href="#m4e590ed373" y="242.2"/>
      </g>
     </g>
     <g id="text_17">
      <!-- −5 -->
      <g transform="translate(29.620313 245.999219)scale(0.1 -0.1)">
       <defs>
        <path d="M 10.59375 35.5 
L 73.1875 35.5 
L 73.1875 27.203125 
L 10.59375 27.203125 
z
" id="DejaVuSans-8722"/>
       </defs>
       <use xlink:href="#DejaVuSans-8722"/>
       <use x="83.789062" xlink:href="#DejaVuSans-53"/>
      </g>
     </g>
    </g>
    <g id="ytick_11">
     <g id="line2d_33">
      <path clip-path="url(#p6e3fc92374)" d="M 51.3625 83.02 
L 381.45 83.02 
" style="fill:none;stroke:#b0b0b0;stroke-linecap:square;stroke-width:0.8;"/>
     </g>
     <g id="line2d_34">
      <g>
       <use style="stroke:#000000;stroke-width:0.8;" x="51.3625" xlink:href="#m4e590ed373" y="83.02"/>
      </g>
     </g>
     <g id="text_18">
      <!-- 30 -->
      <g transform="translate(31.6375 86.819219)scale(0.1 -0.1)">
       <use xlink:href="#DejaVuSans-51"/>
       <use x="63.623047" xlink:href="#DejaVuSans-48"/>
      </g>
     </g>
    </g>
    <g id="text_19">
     <!-- Tensión [$\mathrm{V}$] -->
     <g transform="translate(23.540625 156.95)rotate(-90)scale(0.1 -0.1)">
      <defs>
       <path d="M 54.890625 33.015625 
L 54.890625 0 
L 45.90625 0 
L 45.90625 32.71875 
Q 45.90625 40.484375 42.875 44.328125 
Q 39.84375 48.1875 33.796875 48.1875 
Q 26.515625 48.1875 22.3125 43.546875 
Q 18.109375 38.921875 18.109375 30.90625 
L 18.109375 0 
L 9.078125 0 
L 9.078125 54.6875 
L 18.109375 54.6875 
L 18.109375 46.1875 
Q 21.34375 51.125 25.703125 53.5625 
Q 30.078125 56 35.796875 56 
Q 45.21875 56 50.046875 50.171875 
Q 54.890625 44.34375 54.890625 33.015625 
z
" id="DejaVuSans-110"/>
       <path d="M 30.609375 48.390625 
Q 23.390625 48.390625 19.1875 42.75 
Q 14.984375 37.109375 14.984375 27.296875 
Q 14.984375 17.484375 19.15625 11.84375 
Q 23.34375 6.203125 30.609375 6.203125 
Q 37.796875 6.203125 41.984375 11.859375 
Q 46.1875 17.53125 46.1875 27.296875 
Q 46.1875 37.015625 41.984375 42.703125 
Q 37.796875 48.390625 30.609375 48.390625 
z
M 30.609375 56 
Q 42.328125 56 49.015625 48.375 
Q 55.71875 40.765625 55.71875 27.296875 
Q 55.71875 13.875 49.015625 6.21875 
Q 42.328125 -1.421875 30.609375 -1.421875 
Q 18.84375 -1.421875 12.171875 6.21875 
Q 5.515625 13.875 5.515625 27.296875 
Q 5.515625 40.765625 12.171875 48.375 
Q 18.84375 56 30.609375 56 
z
M 37.40625 79.984375 
L 47.125 79.984375 
L 31.21875 61.625 
L 23.734375 61.625 
z
" id="DejaVuSans-243"/>
       <path d="M 28.609375 0 
L 0.78125 72.90625 
L 11.078125 72.90625 
L 34.1875 11.53125 
L 57.328125 72.90625 
L 67.578125 72.90625 
L 39.796875 0 
z
" id="DejaVuSans-86"/>
      </defs>
      <use transform="translate(0 0.015625)" xlink:href="#DejaVuSans-84"/>
      <use transform="translate(61.083984 0.015625)" xlink:href="#DejaVuSans-101"/>
      <use transform="translate(122.607422 0.015625)" xlink:href="#DejaVuSans-110"/>
      <use transform="translate(185.986328 0.015625)" xlink:href="#DejaVuSans-115"/>
      <use transform="translate(238.085938 0.015625)" xlink:href="#DejaVuSans-105"/>
      <use transform="translate(265.869141 0.015625)" xlink:href="#DejaVuSans-243"/>
      <use transform="translate(327.050781 0.015625)" xlink:href="#DejaVuSans-110"/>
      <use transform="translate(390.429688 0.015625)" xlink:href="#DejaVuSans-32"/>
      <use transform="translate(422.216797 0.015625)" xlink:href="#DejaVuSans-91"/>
      <use transform="translate(461.230469 0.015625)" xlink:href="#DejaVuSans-86"/>
      <use transform="translate(529.638672 0.015625)" xlink:href="#DejaVuSans-93"/>
     </g>
    </g>
   </g>
   <g id="line2d_35">
    <path clip-path="url(#p6e3fc92374)" d="M 66.366477 173.98 
L 69.397584 173.98 
L 72.42869 173.98 
L 75.459797 173.98 
L 78.490903 173.98 
L 81.52201 173.98 
L 84.553116 173.98 
L 87.584223 173.98 
L 90.615329 173.98 
L 93.646436 173.98 
L 96.677542 173.98 
L 99.708649 173.98 
L 102.739756 173.98 
L 105.770862 173.98 
L 108.801969 173.98 
L 111.833075 173.98 
L 114.864182 173.98 
L 117.895288 173.98 
L 120.926395 173.98 
L 123.957501 173.98 
L 126.988608 173.98 
L 130.019714 173.98 
L 133.050821 173.98 
L 136.081927 173.98 
L 139.113034 173.98 
L 142.14414 173.98 
L 145.175247 173.98 
L 148.206353 173.98 
L 151.23746 173.98 
L 154.268566 173.98 
L 157.299673 173.98 
L 160.330779 173.98 
L 163.361886 173.98 
L 166.392992 173.98 
L 169.424099 173.98 
L 172.455205 173.98 
L 175.486312 173.98 
L 178.517419 173.98 
L 181.548525 173.98 
L 184.579632 173.98 
L 187.610738 173.98 
L 190.641845 173.98 
L 193.672951 173.98 
L 196.704058 173.98 
L 199.735164 173.98 
L 202.766271 173.98 
L 205.797377 173.98 
L 208.828484 173.98 
L 211.85959 173.98 
L 214.890697 173.98 
L 217.921803 173.98 
L 220.95291 173.98 
L 223.984016 173.98 
L 227.015123 173.98 
L 230.046229 173.98 
L 233.077336 173.98 
L 236.108442 173.98 
L 239.139549 173.98 
L 242.170655 173.98 
L 245.201762 173.98 
L 248.232868 173.98 
L 251.263975 173.98 
L 254.295081 173.98 
L 257.326188 173.98 
L 260.357295 173.98 
L 263.388401 173.98 
L 266.419508 173.98 
L 269.450614 173.98 
L 272.481721 173.98 
L 275.512827 173.98 
L 278.543934 173.98 
L 281.57504 173.98 
L 284.606147 173.98 
L 287.637253 173.98 
L 290.66836 173.98 
L 293.699466 173.98 
L 296.730573 173.98 
L 299.761679 173.98 
L 302.792786 173.98 
L 305.823892 173.98 
L 308.854999 173.98 
L 311.886105 173.98 
L 314.917212 173.98 
L 317.948318 173.98 
L 320.979425 173.98 
L 324.010531 173.98 
L 327.041638 173.98 
L 330.072744 173.98 
L 333.103851 173.98 
L 336.134958 173.98 
L 339.166064 173.98 
L 342.197171 173.98 
L 345.228277 173.98 
L 348.259384 173.98 
L 351.29049 173.98 
L 354.321597 173.98 
L 357.352703 173.98 
L 360.38381 173.98 
L 363.414916 173.98 
L 366.446023 173.98 
" style="fill:none;stroke:#808080;stroke-linecap:square;stroke-width:1.5;"/>
   </g>
   <g id="patch_3">
    <path d="M 51.3625 242.2 
L 51.3625 14.8 
" style="fill:none;stroke:#000000;stroke-linecap:square;stroke-linejoin:miter;stroke-width:0.8;"/>
   </g>
   <g id="patch_4">
    <path d="M 381.45 242.2 
L 381.45 14.8 
" style="fill:none;stroke:#000000;stroke-linecap:square;stroke-linejoin:miter;stroke-width:0.8;"/>
   </g>
   <g id="patch_5">
    <path d="M 51.3625 242.2 
L 381.45 242.2 
" style="fill:none;stroke:#000000;stroke-linecap:square;stroke-linejoin:miter;stroke-width:0.8;"/>
   </g>
   <g id="patch_6">
    <path d="M 51.3625 14.8 
L 381.45 14.8 
" style="fill:none;stroke:#000000;stroke-linecap:square;stroke-linejoin:miter;stroke-width:0.8;"/>
   </g>
  </g>
  <g id="axes_2">
   <g id="matplotlib.axis_3">
    <g id="ytick_12">
     <g id="line2d_36">
      <defs>
       <path d="M 0 0 
L 3.5 0 
" id="m5fc99f9772" style="stroke:#000000;stroke-width:0.8;"/>
      </defs>
      <g>
       <use style="stroke:#000000;stroke-width:0.8;" x="381.45" xlink:href="#m5fc99f9772" y="219.46"/>
      </g>
     </g>
     <g id="text_20">
      <!-- 0 -->
      <g transform="translate(388.45 223.259219)scale(0.1 -0.1)">
       <use xlink:href="#DejaVuSans-48"/>
      </g>
     </g>
    </g>
    <g id="ytick_13">
     <g id="line2d_37">
      <g>
       <use style="stroke:#000000;stroke-width:0.8;" x="381.45" xlink:href="#m5fc99f9772" y="60.28"/>
      </g>
     </g>
     <g id="text_21">
      <!-- 35 -->
      <g transform="translate(388.45 64.079219)scale(0.1 -0.1)">
       <use xlink:href="#DejaVuSans-51"/>
       <use x="63.623047" xlink:href="#DejaVuSans-53"/>
      </g>
     </g>
    </g>
    <g id="ytick_14">
     <g id="line2d_38">
      <g>
       <use style="stroke:#000000;stroke-width:0.8;" x="381.45" xlink:href="#m5fc99f9772" y="196.72"/>
      </g>
     </g>
     <g id="text_22">
      <!-- 5 -->
      <g transform="translate(388.45 200.519219)scale(0.1 -0.1)">
       <use xlink:href="#DejaVuSans-53"/>
      </g>
     </g>
    </g>
    <g id="ytick_15">
     <g id="line2d_39">
      <g>
       <use style="stroke:#000000;stroke-width:0.8;" x="381.45" xlink:href="#m5fc99f9772" y="37.54"/>
      </g>
     </g>
     <g id="text_23">
      <!-- 40 -->
      <g transform="translate(388.45 41.339219)scale(0.1 -0.1)">
       <use xlink:href="#DejaVuSans-52"/>
       <use x="63.623047" xlink:href="#DejaVuSans-48"/>
      </g>
     </g>
    </g>
    <g id="ytick_16">
     <g id="line2d_40">
      <g>
       <use style="stroke:#000000;stroke-width:0.8;" x="381.45" xlink:href="#m5fc99f9772" y="173.98"/>
      </g>
     </g>
     <g id="text_24">
      <!-- 10 -->
      <g transform="translate(388.45 177.779219)scale(0.1 -0.1)">
       <use xlink:href="#DejaVuSans-49"/>
       <use x="63.623047" xlink:href="#DejaVuSans-48"/>
      </g>
     </g>
    </g>
    <g id="ytick_17">
     <g id="line2d_41">
      <g>
       <use style="stroke:#000000;stroke-width:0.8;" x="381.45" xlink:href="#m5fc99f9772" y="14.8"/>
      </g>
     </g>
     <g id="text_25">
      <!-- 45 -->
      <g transform="translate(388.45 18.599219)scale(0.1 -0.1)">
       <use xlink:href="#DejaVuSans-52"/>
       <use x="63.623047" xlink:href="#DejaVuSans-53"/>
      </g>
     </g>
    </g>
    <g id="ytick_18">
     <g id="line2d_42">
      <g>
       <use style="stroke:#000000;stroke-width:0.8;" x="381.45" xlink:href="#m5fc99f9772" y="151.24"/>
      </g>
     </g>
     <g id="text_26">
      <!-- 15 -->
      <g transform="translate(388.45 155.039219)scale(0.1 -0.1)">
       <use xlink:href="#DejaVuSans-49"/>
       <use x="63.623047" xlink:href="#DejaVuSans-53"/>
      </g>
     </g>
    </g>
    <g id="ytick_19">
     <g id="line2d_43">
      <g>
       <use style="stroke:#000000;stroke-width:0.8;" x="381.45" xlink:href="#m5fc99f9772" y="128.5"/>
      </g>
     </g>
     <g id="text_27">
      <!-- 20 -->
      <g transform="translate(388.45 132.299219)scale(0.1 -0.1)">
       <use xlink:href="#DejaVuSans-50"/>
       <use x="63.623047" xlink:href="#DejaVuSans-48"/>
      </g>
     </g>
    </g>
    <g id="ytick_20">
     <g id="line2d_44">
      <g>
       <use style="stroke:#000000;stroke-width:0.8;" x="381.45" xlink:href="#m5fc99f9772" y="105.76"/>
      </g>
     </g>
     <g id="text_28">
      <!-- 25 -->
      <g transform="translate(388.45 109.559219)scale(0.1 -0.1)">
       <use xlink:href="#DejaVuSans-50"/>
       <use x="63.623047" xlink:href="#DejaVuSans-53"/>
      </g>
     </g>
    </g>
    <g id="ytick_21">
     <g id="line2d_45">
      <g>
       <use style="stroke:#000000;stroke-width:0.8;" x="381.45" xlink:href="#m5fc99f9772" y="242.2"/>
      </g>
     </g>
     <g id="text_29">
      <!-- −5 -->
      <g transform="translate(388.45 245.999219)scale(0.1 -0.1)">
       <use xlink:href="#DejaVuSans-8722"/>
       <use x="83.789062" xlink:href="#DejaVuSans-53"/>
      </g>
     </g>
    </g>
    <g id="ytick_22">
     <g id="line2d_46">
      <g>
       <use style="stroke:#000000;stroke-width:0.8;" x="381.45" xlink:href="#m5fc99f9772" y="83.02"/>
      </g>
     </g>
     <g id="text_30">
      <!-- 30 -->
      <g transform="translate(388.45 86.819219)scale(0.1 -0.1)">
       <use xlink:href="#DejaVuSans-51"/>
       <use x="63.623047" xlink:href="#DejaVuSans-48"/>
      </g>
     </g>
    </g>
    <g id="text_31">
     <!-- Temperatura [$\mathrm{°C}$] -->
     <g transform="translate(414.792188 172.65)rotate(-90)scale(0.1 -0.1)">
      <defs>
       <path d="M 41.109375 46.296875 
Q 39.59375 47.171875 37.8125 47.578125 
Q 36.03125 48 33.890625 48 
Q 26.265625 48 22.1875 43.046875 
Q 18.109375 38.09375 18.109375 28.8125 
L 18.109375 0 
L 9.078125 0 
L 9.078125 54.6875 
L 18.109375 54.6875 
L 18.109375 46.1875 
Q 20.953125 51.171875 25.484375 53.578125 
Q 30.03125 56 36.53125 56 
Q 37.453125 56 38.578125 55.875 
Q 39.703125 55.765625 41.0625 55.515625 
z
" id="DejaVuSans-114"/>
       <path d="M 34.28125 27.484375 
Q 23.390625 27.484375 19.1875 25 
Q 14.984375 22.515625 14.984375 16.5 
Q 14.984375 11.71875 18.140625 8.90625 
Q 21.296875 6.109375 26.703125 6.109375 
Q 34.1875 6.109375 38.703125 11.40625 
Q 43.21875 16.703125 43.21875 25.484375 
L 43.21875 27.484375 
z
M 52.203125 31.203125 
L 52.203125 0 
L 43.21875 0 
L 43.21875 8.296875 
Q 40.140625 3.328125 35.546875 0.953125 
Q 30.953125 -1.421875 24.3125 -1.421875 
Q 15.921875 -1.421875 10.953125 3.296875 
Q 6 8.015625 6 15.921875 
Q 6 25.140625 12.171875 29.828125 
Q 18.359375 34.515625 30.609375 34.515625 
L 43.21875 34.515625 
L 43.21875 35.40625 
Q 43.21875 41.609375 39.140625 45 
Q 35.0625 48.390625 27.6875 48.390625 
Q 23 48.390625 18.546875 47.265625 
Q 14.109375 46.140625 10.015625 43.890625 
L 10.015625 52.203125 
Q 14.9375 54.109375 19.578125 55.046875 
Q 24.21875 56 28.609375 56 
Q 40.484375 56 46.34375 49.84375 
Q 52.203125 43.703125 52.203125 31.203125 
z
" id="DejaVuSans-97"/>
       <path d="M 18.3125 70.21875 
L 18.3125 54.6875 
L 36.8125 54.6875 
L 36.8125 47.703125 
L 18.3125 47.703125 
L 18.3125 18.015625 
Q 18.3125 11.328125 20.140625 9.421875 
Q 21.96875 7.515625 27.59375 7.515625 
L 36.8125 7.515625 
L 36.8125 0 
L 27.59375 0 
Q 17.1875 0 13.234375 3.875 
Q 9.28125 7.765625 9.28125 18.015625 
L 9.28125 47.703125 
L 2.6875 47.703125 
L 2.6875 54.6875 
L 9.28125 54.6875 
L 9.28125 70.21875 
z
" id="DejaVuSans-116"/>
       <path d="M 8.5 21.578125 
L 8.5 54.6875 
L 17.484375 54.6875 
L 17.484375 21.921875 
Q 17.484375 14.15625 20.5 10.265625 
Q 23.53125 6.390625 29.59375 6.390625 
Q 36.859375 6.390625 41.078125 11.03125 
Q 45.3125 15.671875 45.3125 23.6875 
L 45.3125 54.6875 
L 54.296875 54.6875 
L 54.296875 0 
L 45.3125 0 
L 45.3125 8.40625 
Q 42.046875 3.421875 37.71875 1 
Q 33.40625 -1.421875 27.6875 -1.421875 
Q 18.265625 -1.421875 13.375 4.4375 
Q 8.5 10.296875 8.5 21.578125 
z
M 31.109375 56 
z
" id="DejaVuSans-117"/>
       <path d="M 25 67.921875 
Q 21.09375 67.921875 18.40625 65.203125 
Q 15.71875 62.5 15.71875 58.59375 
Q 15.71875 54.734375 18.40625 52.078125 
Q 21.09375 49.421875 25 49.421875 
Q 28.90625 49.421875 31.59375 52.078125 
Q 34.28125 54.734375 34.28125 58.59375 
Q 34.28125 62.453125 31.5625 65.1875 
Q 28.859375 67.921875 25 67.921875 
z
M 25 74.21875 
Q 28.125 74.21875 31 73.015625 
Q 33.890625 71.828125 35.984375 69.578125 
Q 38.234375 67.390625 39.359375 64.59375 
Q 40.484375 61.8125 40.484375 58.59375 
Q 40.484375 52.15625 35.96875 47.6875 
Q 31.453125 43.21875 24.90625 43.21875 
Q 18.3125 43.21875 13.90625 47.609375 
Q 9.515625 52 9.515625 58.59375 
Q 9.515625 65.140625 14 69.671875 
Q 18.5 74.21875 25 74.21875 
z
" id="DejaVuSans-176"/>
       <path d="M 64.40625 67.28125 
L 64.40625 56.890625 
Q 59.421875 61.53125 53.78125 63.8125 
Q 48.140625 66.109375 41.796875 66.109375 
Q 29.296875 66.109375 22.65625 58.46875 
Q 16.015625 50.828125 16.015625 36.375 
Q 16.015625 21.96875 22.65625 14.328125 
Q 29.296875 6.6875 41.796875 6.6875 
Q 48.140625 6.6875 53.78125 8.984375 
Q 59.421875 11.28125 64.40625 15.921875 
L 64.40625 5.609375 
Q 59.234375 2.09375 53.4375 0.328125 
Q 47.65625 -1.421875 41.21875 -1.421875 
Q 24.65625 -1.421875 15.125 8.703125 
Q 5.609375 18.84375 5.609375 36.375 
Q 5.609375 53.953125 15.125 64.078125 
Q 24.65625 74.21875 41.21875 74.21875 
Q 47.75 74.21875 53.53125 72.484375 
Q 59.328125 70.75 64.40625 67.28125 
z
" id="DejaVuSans-67"/>
      </defs>
      <use transform="translate(0 0.015625)" xlink:href="#DejaVuSans-84"/>
      <use transform="translate(61.083984 0.015625)" xlink:href="#DejaVuSans-101"/>
      <use transform="translate(122.607422 0.015625)" xlink:href="#DejaVuSans-109"/>
      <use transform="translate(220.019531 0.015625)" xlink:href="#DejaVuSans-112"/>
      <use transform="translate(283.496094 0.015625)" xlink:href="#DejaVuSans-101"/>
      <use transform="translate(345.019531 0.015625)" xlink:href="#DejaVuSans-114"/>
      <use transform="translate(386.132812 0.015625)" xlink:href="#DejaVuSans-97"/>
      <use transform="translate(447.412109 0.015625)" xlink:href="#DejaVuSans-116"/>
      <use transform="translate(486.621094 0.015625)" xlink:href="#DejaVuSans-117"/>
      <use transform="translate(550 0.015625)" xlink:href="#DejaVuSans-114"/>
      <use transform="translate(591.113281 0.015625)" xlink:href="#DejaVuSans-97"/>
      <use transform="translate(652.392578 0.015625)" xlink:href="#DejaVuSans-32"/>
      <use transform="translate(684.179688 0.015625)" xlink:href="#DejaVuSans-91"/>
      <use transform="translate(723.193359 0.015625)" xlink:href="#DejaVuSans-176"/>
      <use transform="translate(773.193359 0.015625)" xlink:href="#DejaVuSans-67"/>
      <use transform="translate(843.017578 0.015625)" xlink:href="#DejaVuSans-93"/>
     </g>
    </g>
   </g>
   <g id="line2d_47">
    <path clip-path="url(#p6e3fc92374)" d="M 66.366477 219.46 
L 69.397584 208.62491 
L 72.42869 201.016468 
L 75.459797 195.673813 
L 78.490903 191.922196 
L 81.52201 189.287807 
L 84.553116 187.437937 
L 87.584223 186.138956 
L 90.615329 185.22681 
L 93.646436 184.586301 
L 96.677542 184.136535 
L 99.708649 183.820709 
L 102.739756 183.598935 
L 105.770862 183.443205 
L 108.801969 183.333852 
L 111.833075 183.257064 
L 114.864182 183.203143 
L 117.895288 183.16528 
L 120.926395 183.138693 
L 123.957501 183.120023 
L 126.988608 183.106913 
L 130.019714 183.097707 
L 133.050821 183.091243 
L 136.081927 183.086703 
L 139.113034 183.083516 
L 142.14414 183.081278 
L 145.175247 183.079706 
L 148.206353 183.078602 
L 151.23746 183.077827 
L 154.268566 183.077283 
L 157.299673 183.076901 
L 160.330779 183.076633 
L 163.361886 183.076444 
L 166.392992 183.076312 
L 169.424099 183.076219 
L 172.455205 183.076154 
L 175.486312 183.076108 
L 178.517419 183.076076 
L 181.548525 183.076053 
L 184.579632 183.076037 
L 187.610738 183.076026 
L 190.641845 183.076018 
L 193.672951 183.076013 
L 196.704058 183.076009 
L 199.735164 183.076006 
L 202.766271 183.076004 
L 205.797377 183.076003 
L 208.828484 183.076002 
L 211.85959 183.076002 
L 214.890697 183.076001 
L 217.921803 183.076001 
L 220.95291 183.076001 
L 223.984016 183.076 
L 227.015123 183.076 
L 230.046229 183.076 
L 233.077336 183.076 
L 236.108442 183.076 
L 239.139549 183.076 
L 242.170655 183.076 
L 245.201762 183.076 
L 248.232868 183.076 
L 251.263975 183.076 
L 254.295081 183.076 
L 257.326188 183.076 
L 260.357295 183.076 
L 263.388401 183.076 
L 266.419508 183.076 
L 269.450614 183.076 
L 272.481721 183.076 
L 275.512827 183.076 
L 278.543934 183.076 
L 281.57504 183.076 
L 284.606147 183.076 
L 287.637253 183.076 
L 290.66836 183.076 
L 293.699466 183.076 
L 296.730573 183.076 
L 299.761679 183.076 
L 302.792786 183.076 
L 305.823892 183.076 
L 308.854999 183.076 
L 311.886105 183.076 
L 314.917212 183.076 
L 317.948318 183.076 
L 320.979425 183.076 
L 324.010531 183.076 
L 327.041638 183.076 
L 330.072744 183.076 
L 333.103851 183.076 
L 336.134958 183.076 
L 339.166064 183.076 
L 342.197171 183.076 
L 345.228277 183.076 
L 348.259384 183.076 
L 351.29049 183.076 
L 354.321597 183.076 
L 357.352703 183.076 
L 360.38381 183.076 
L 363.414916 183.076 
L 366.446023 183.076 
" style="fill:none;stroke:#1f77b4;stroke-linecap:square;stroke-width:1.5;"/>
   </g>
   <g id="line2d_48">
    <path clip-path="url(#p6e3fc92374)" d="M 66.366477 219.46 
L 69.397584 207.041234 
L 72.42869 195.470196 
L 75.459797 184.689057 
L 78.490903 174.643895 
L 81.52201 165.284468 
L 84.553116 156.563965 
L 87.584223 148.438768 
L 90.615329 140.86824 
L 93.646436 133.814515 
L 96.677542 127.242315 
L 99.708649 121.118767 
L 102.739756 115.413244 
L 105.770862 110.09721 
L 108.801969 105.144077 
L 111.833075 100.52907 
L 114.864182 96.229108 
L 117.895288 92.222683 
L 120.926395 88.489758 
L 123.957501 85.011662 
L 126.988608 81.770998 
L 130.019714 78.75156 
L 133.050821 75.938244 
L 136.081927 73.316979 
L 139.113034 70.874656 
L 142.14414 68.599059 
L 145.175247 66.478805 
L 148.206353 64.503292 
L 151.23746 62.662637 
L 154.268566 60.947634 
L 157.299673 59.349707 
L 160.330779 57.860863 
L 163.361886 56.473655 
L 166.392992 55.181145 
L 169.424099 53.976868 
L 172.455205 52.854802 
L 175.486312 51.809334 
L 178.517419 50.835234 
L 181.548525 49.927632 
L 184.579632 49.081988 
L 187.610738 48.294072 
L 190.641845 47.559943 
L 193.672951 46.875929 
L 196.704058 46.23861 
L 199.735164 45.644797 
L 202.766271 45.091522 
L 205.797377 44.576015 
L 208.828484 44.0957 
L 211.85959 43.648174 
L 214.890697 43.231198 
L 217.921803 42.842687 
L 220.95291 42.480698 
L 223.984016 42.14342 
L 227.015123 41.829167 
L 230.046229 41.536366 
L 233.077336 41.263553 
L 236.108442 41.009364 
L 239.139549 40.772527 
L 242.170655 40.551858 
L 245.201762 40.346253 
L 248.232868 40.154683 
L 251.263975 39.976191 
L 254.295081 39.809884 
L 257.326188 39.65493 
L 260.357295 39.510554 
L 263.388401 39.376034 
L 266.419508 39.250696 
L 269.450614 39.133915 
L 272.481721 39.025106 
L 275.512827 38.923725 
L 278.543934 38.829265 
L 281.57504 38.741253 
L 284.606147 38.659249 
L 287.637253 38.582843 
L 290.66836 38.511654 
L 293.699466 38.445323 
L 296.730573 38.383521 
L 299.761679 38.325938 
L 302.792786 38.272286 
L 305.823892 38.222296 
L 308.854999 38.175719 
L 311.886105 38.132322 
L 314.917212 38.091887 
L 317.948318 38.054212 
L 320.979425 38.019109 
L 324.010531 37.986403 
L 327.041638 37.955929 
L 330.072744 37.927535 
L 333.103851 37.90108 
L 336.134958 37.876431 
L 339.166064 37.853464 
L 342.197171 37.832066 
L 345.228277 37.812128 
L 348.259384 37.793551 
L 351.29049 37.776242 
L 354.321597 37.760115 
L 357.352703 37.745089 
L 360.38381 37.731088 
L 363.414916 37.718044 
L 366.446023 37.70589 
" style="fill:none;stroke:#ff7f0e;stroke-linecap:square;stroke-width:1.5;"/>
   </g>
   <g id="patch_7">
    <path d="M 51.3625 242.2 
L 51.3625 14.8 
" style="fill:none;stroke:#000000;stroke-linecap:square;stroke-linejoin:miter;stroke-width:0.8;"/>
   </g>
   <g id="patch_8">
    <path d="M 381.45 242.2 
L 381.45 14.8 
" style="fill:none;stroke:#000000;stroke-linecap:square;stroke-linejoin:miter;stroke-width:0.8;"/>
   </g>
   <g id="patch_9">
    <path d="M 51.3625 242.2 
L 381.45 242.2 
" style="fill:none;stroke:#000000;stroke-linecap:square;stroke-linejoin:miter;stroke-width:0.8;"/>
   </g>
   <g id="patch_10">
    <path d="M 51.3625 14.8 
L 381.45 14.8 
" style="fill:none;stroke:#000000;stroke-linecap:square;stroke-linejoin:miter;stroke-width:0.8;"/>
   </g>
   <g id="legend_1">
    <g id="patch_11">
     <path d="M 58.3625 52.15625 
L 158.135938 52.15625 
Q 160.135938 52.15625 160.135938 50.15625 
L 160.135938 21.8 
Q 160.135938 19.8 158.135938 19.8 
L 58.3625 19.8 
Q 56.3625 19.8 56.3625 21.8 
L 56.3625 50.15625 
Q 56.3625 52.15625 58.3625 52.15625 
z
" style="fill:#ffffff;opacity:0.8;stroke:#cccccc;stroke-linejoin:miter;"/>
    </g>
    <g id="line2d_49">
     <path d="M 60.3625 27.898437 
L 80.3625 27.898437 
" style="fill:none;stroke:#1f77b4;stroke-linecap:square;stroke-width:1.5;"/>
    </g>
    <g id="line2d_50"/>
    <g id="text_32">
     <!-- Respuesta LC -->
     <g transform="translate(88.3625 31.398437)scale(0.1 -0.1)">
      <defs>
       <path d="M 44.390625 34.1875 
Q 47.5625 33.109375 50.5625 29.59375 
Q 53.5625 26.078125 56.59375 19.921875 
L 66.609375 0 
L 56 0 
L 46.6875 18.703125 
Q 43.0625 26.03125 39.671875 28.421875 
Q 36.28125 30.8125 30.421875 30.8125 
L 19.671875 30.8125 
L 19.671875 0 
L 9.8125 0 
L 9.8125 72.90625 
L 32.078125 72.90625 
Q 44.578125 72.90625 50.734375 67.671875 
Q 56.890625 62.453125 56.890625 51.90625 
Q 56.890625 45.015625 53.6875 40.46875 
Q 50.484375 35.9375 44.390625 34.1875 
z
M 19.671875 64.796875 
L 19.671875 38.921875 
L 32.078125 38.921875 
Q 39.203125 38.921875 42.84375 42.21875 
Q 46.484375 45.515625 46.484375 51.90625 
Q 46.484375 58.296875 42.84375 61.546875 
Q 39.203125 64.796875 32.078125 64.796875 
z
" id="DejaVuSans-82"/>
       <path d="M 9.8125 72.90625 
L 19.671875 72.90625 
L 19.671875 8.296875 
L 55.171875 8.296875 
L 55.171875 0 
L 9.8125 0 
z
" id="DejaVuSans-76"/>
      </defs>
      <use xlink:href="#DejaVuSans-82"/>
      <use x="64.982422" xlink:href="#DejaVuSans-101"/>
      <use x="126.505859" xlink:href="#DejaVuSans-115"/>
      <use x="178.605469" xlink:href="#DejaVuSans-112"/>
      <use x="242.082031" xlink:href="#DejaVuSans-117"/>
      <use x="305.460938" xlink:href="#DejaVuSans-101"/>
      <use x="366.984375" xlink:href="#DejaVuSans-115"/>
      <use x="419.083984" xlink:href="#DejaVuSans-116"/>
      <use x="458.292969" xlink:href="#DejaVuSans-97"/>
      <use x="519.572266" xlink:href="#DejaVuSans-32"/>
      <use x="551.359375" xlink:href="#DejaVuSans-76"/>
      <use x="607.072266" xlink:href="#DejaVuSans-67"/>
     </g>
    </g>
    <g id="line2d_51">
     <path d="M 60.3625 42.576562 
L 80.3625 42.576562 
" style="fill:none;stroke:#ff7f0e;stroke-linecap:square;stroke-width:1.5;"/>
    </g>
    <g id="line2d_52"/>
    <g id="text_33">
     <!-- Respuesta LA -->
     <g transform="translate(88.3625 46.076562)scale(0.1 -0.1)">
      <defs>
       <path d="M 34.1875 63.1875 
L 20.796875 26.90625 
L 47.609375 26.90625 
z
M 28.609375 72.90625 
L 39.796875 72.90625 
L 67.578125 0 
L 57.328125 0 
L 50.6875 18.703125 
L 17.828125 18.703125 
L 11.1875 0 
L 0.78125 0 
z
" id="DejaVuSans-65"/>
      </defs>
      <use xlink:href="#DejaVuSans-82"/>
      <use x="64.982422" xlink:href="#DejaVuSans-101"/>
      <use x="126.505859" xlink:href="#DejaVuSans-115"/>
      <use x="178.605469" xlink:href="#DejaVuSans-112"/>
      <use x="242.082031" xlink:href="#DejaVuSans-117"/>
      <use x="305.460938" xlink:href="#DejaVuSans-101"/>
      <use x="366.984375" xlink:href="#DejaVuSans-115"/>
      <use x="419.083984" xlink:href="#DejaVuSans-116"/>
      <use x="458.292969" xlink:href="#DejaVuSans-97"/>
      <use x="519.572266" xlink:href="#DejaVuSans-32"/>
      <use x="551.359375" xlink:href="#DejaVuSans-76"/>
      <use x="609.322266" xlink:href="#DejaVuSans-65"/>
     </g>
    </g>
   </g>
  </g>
 </g>
 <defs>
  <clipPath id="p6e3fc92374">
   <rect height="227.4" width="330.0875" x="51.3625" y="14.8"/>
  </clipPath>
 </defs>
</svg>
