<?xml version="1.0" encoding="utf-8" standalone="no"?>
<!DOCTYPE svg PUBLIC "-//W3C//DTD SVG 1.1//EN"
  "http://www.w3.org/Graphics/SVG/1.1/DTD/svg11.dtd">
<!-- Created with matplotlib (https://matplotlib.org/) -->
<svg height="288pt" version="1.1" viewBox="0 0 432 288" width="432pt" xmlns="http://www.w3.org/2000/svg" xmlns:xlink="http://www.w3.org/1999/xlink">
 <metadata>
  <rdf:RDF xmlns:cc="http://creativecommons.org/ns#" xmlns:dc="http://purl.org/dc/elements/1.1/" xmlns:rdf="http://www.w3.org/1999/02/22-rdf-syntax-ns#">
   <cc:Work>
    <dc:type rdf:resource="http://purl.org/dc/dcmitype/StillImage"/>
    <dc:date>2021-05-01T18:22:31.943519</dc:date>
    <dc:format>image/svg+xml</dc:format>
    <dc:creator>
     <cc:Agent>
      <dc:title>Matplotlib v3.3.3, https://matplotlib.org/</dc:title>
     </cc:Agent>
    </dc:creator>
   </cc:Work>
  </rdf:RDF>
 </metadata>
 <defs>
  <style type="text/css">*{stroke-linecap:butt;stroke-linejoin:round;}</style>
 </defs>
 <g id="figure_1">
  <g id="patch_1">
   <path d="M 0 288 
L 432 288 
L 432 0 
L 0 0 
z
" style="fill:none;"/>
  </g>
  <g id="axes_1">
   <g id="patch_2">
    <path d="M 59.175 120.622445 
L 421.2 120.622445 
L 421.2 10.8 
L 59.175 10.8 
z
" style="fill:#ffffff;"/>
   </g>
   <g id="matplotlib.axis_1">
    <g id="xtick_1">
     <g id="line2d_1">
      <path clip-path="url(#pfa0b89189d)" d="M 75.630682 120.622445 
L 75.630682 10.8 
" style="fill:none;stroke:#b0b0b0;stroke-linecap:square;stroke-width:0.8;"/>
     </g>
     <g id="line2d_2">
      <defs>
       <path d="M 0 0 
L 0 3.5 
" id="md108198d07" style="stroke:#000000;stroke-width:0.8;"/>
      </defs>
      <g>
       <use style="stroke:#000000;stroke-width:0.8;" x="75.630682" xlink:href="#md108198d07" y="120.622445"/>
      </g>
     </g>
    </g>
    <g id="xtick_2">
     <g id="line2d_3">
      <path clip-path="url(#pfa0b89189d)" d="M 185.335227 120.622445 
L 185.335227 10.8 
" style="fill:none;stroke:#b0b0b0;stroke-linecap:square;stroke-width:0.8;"/>
     </g>
     <g id="line2d_4">
      <g>
       <use style="stroke:#000000;stroke-width:0.8;" x="185.335227" xlink:href="#md108198d07" y="120.622445"/>
      </g>
     </g>
    </g>
    <g id="xtick_3">
     <g id="line2d_5">
      <path clip-path="url(#pfa0b89189d)" d="M 295.039773 120.622445 
L 295.039773 10.8 
" style="fill:none;stroke:#b0b0b0;stroke-linecap:square;stroke-width:0.8;"/>
     </g>
     <g id="line2d_6">
      <g>
       <use style="stroke:#000000;stroke-width:0.8;" x="295.039773" xlink:href="#md108198d07" y="120.622445"/>
      </g>
     </g>
    </g>
    <g id="xtick_4">
     <g id="line2d_7">
      <path clip-path="url(#pfa0b89189d)" d="M 404.744318 120.622445 
L 404.744318 10.8 
" style="fill:none;stroke:#b0b0b0;stroke-linecap:square;stroke-width:0.8;"/>
     </g>
     <g id="line2d_8">
      <g>
       <use style="stroke:#000000;stroke-width:0.8;" x="404.744318" xlink:href="#md108198d07" y="120.622445"/>
      </g>
     </g>
    </g>
    <g id="xtick_5">
     <g id="line2d_9">
      <defs>
       <path d="M 0 0 
L 0 2 
" id="m71a750c1b1" style="stroke:#000000;stroke-width:0.6;"/>
      </defs>
      <g>
       <use style="stroke:#000000;stroke-width:0.6;" x="64.999213" xlink:href="#m71a750c1b1" y="120.622445"/>
      </g>
     </g>
    </g>
    <g id="xtick_6">
     <g id="line2d_10">
      <g>
       <use style="stroke:#000000;stroke-width:0.6;" x="70.610877" xlink:href="#m71a750c1b1" y="120.622445"/>
      </g>
     </g>
    </g>
    <g id="xtick_7">
     <g id="line2d_11">
      <g>
       <use style="stroke:#000000;stroke-width:0.6;" x="108.655041" xlink:href="#m71a750c1b1" y="120.622445"/>
      </g>
     </g>
    </g>
    <g id="xtick_8">
     <g id="line2d_12">
      <g>
       <use style="stroke:#000000;stroke-width:0.6;" x="127.973052" xlink:href="#m71a750c1b1" y="120.622445"/>
      </g>
     </g>
    </g>
    <g id="xtick_9">
     <g id="line2d_13">
      <g>
       <use style="stroke:#000000;stroke-width:0.6;" x="141.6794" xlink:href="#m71a750c1b1" y="120.622445"/>
      </g>
     </g>
    </g>
    <g id="xtick_10">
     <g id="line2d_14">
      <g>
       <use style="stroke:#000000;stroke-width:0.6;" x="152.310868" xlink:href="#m71a750c1b1" y="120.622445"/>
      </g>
     </g>
    </g>
    <g id="xtick_11">
     <g id="line2d_15">
      <g>
       <use style="stroke:#000000;stroke-width:0.6;" x="160.997411" xlink:href="#m71a750c1b1" y="120.622445"/>
      </g>
     </g>
    </g>
    <g id="xtick_12">
     <g id="line2d_16">
      <g>
       <use style="stroke:#000000;stroke-width:0.6;" x="168.341778" xlink:href="#m71a750c1b1" y="120.622445"/>
      </g>
     </g>
    </g>
    <g id="xtick_13">
     <g id="line2d_17">
      <g>
       <use style="stroke:#000000;stroke-width:0.6;" x="174.703758" xlink:href="#m71a750c1b1" y="120.622445"/>
      </g>
     </g>
    </g>
    <g id="xtick_14">
     <g id="line2d_18">
      <g>
       <use style="stroke:#000000;stroke-width:0.6;" x="180.315423" xlink:href="#m71a750c1b1" y="120.622445"/>
      </g>
     </g>
    </g>
    <g id="xtick_15">
     <g id="line2d_19">
      <g>
       <use style="stroke:#000000;stroke-width:0.6;" x="218.359586" xlink:href="#m71a750c1b1" y="120.622445"/>
      </g>
     </g>
    </g>
    <g id="xtick_16">
     <g id="line2d_20">
      <g>
       <use style="stroke:#000000;stroke-width:0.6;" x="237.677598" xlink:href="#m71a750c1b1" y="120.622445"/>
      </g>
     </g>
    </g>
    <g id="xtick_17">
     <g id="line2d_21">
      <g>
       <use style="stroke:#000000;stroke-width:0.6;" x="251.383945" xlink:href="#m71a750c1b1" y="120.622445"/>
      </g>
     </g>
    </g>
    <g id="xtick_18">
     <g id="line2d_22">
      <g>
       <use style="stroke:#000000;stroke-width:0.6;" x="262.015414" xlink:href="#m71a750c1b1" y="120.622445"/>
      </g>
     </g>
    </g>
    <g id="xtick_19">
     <g id="line2d_23">
      <g>
       <use style="stroke:#000000;stroke-width:0.6;" x="270.701956" xlink:href="#m71a750c1b1" y="120.622445"/>
      </g>
     </g>
    </g>
    <g id="xtick_20">
     <g id="line2d_24">
      <g>
       <use style="stroke:#000000;stroke-width:0.6;" x="278.046324" xlink:href="#m71a750c1b1" y="120.622445"/>
      </g>
     </g>
    </g>
    <g id="xtick_21">
     <g id="line2d_25">
      <g>
       <use style="stroke:#000000;stroke-width:0.6;" x="284.408304" xlink:href="#m71a750c1b1" y="120.622445"/>
      </g>
     </g>
    </g>
    <g id="xtick_22">
     <g id="line2d_26">
      <g>
       <use style="stroke:#000000;stroke-width:0.6;" x="290.019968" xlink:href="#m71a750c1b1" y="120.622445"/>
      </g>
     </g>
    </g>
    <g id="xtick_23">
     <g id="line2d_27">
      <g>
       <use style="stroke:#000000;stroke-width:0.6;" x="328.064132" xlink:href="#m71a750c1b1" y="120.622445"/>
      </g>
     </g>
    </g>
    <g id="xtick_24">
     <g id="line2d_28">
      <g>
       <use style="stroke:#000000;stroke-width:0.6;" x="347.382143" xlink:href="#m71a750c1b1" y="120.622445"/>
      </g>
     </g>
    </g>
    <g id="xtick_25">
     <g id="line2d_29">
      <g>
       <use style="stroke:#000000;stroke-width:0.6;" x="361.08849" xlink:href="#m71a750c1b1" y="120.622445"/>
      </g>
     </g>
    </g>
    <g id="xtick_26">
     <g id="line2d_30">
      <g>
       <use style="stroke:#000000;stroke-width:0.6;" x="371.719959" xlink:href="#m71a750c1b1" y="120.622445"/>
      </g>
     </g>
    </g>
    <g id="xtick_27">
     <g id="line2d_31">
      <g>
       <use style="stroke:#000000;stroke-width:0.6;" x="380.406502" xlink:href="#m71a750c1b1" y="120.622445"/>
      </g>
     </g>
    </g>
    <g id="xtick_28">
     <g id="line2d_32">
      <g>
       <use style="stroke:#000000;stroke-width:0.6;" x="387.750869" xlink:href="#m71a750c1b1" y="120.622445"/>
      </g>
     </g>
    </g>
    <g id="xtick_29">
     <g id="line2d_33">
      <g>
       <use style="stroke:#000000;stroke-width:0.6;" x="394.112849" xlink:href="#m71a750c1b1" y="120.622445"/>
      </g>
     </g>
    </g>
    <g id="xtick_30">
     <g id="line2d_34">
      <g>
       <use style="stroke:#000000;stroke-width:0.6;" x="399.724513" xlink:href="#m71a750c1b1" y="120.622445"/>
      </g>
     </g>
    </g>
    <g id="text_1">
     <!-- Frecuencia [rad/s] -->
     <g transform="translate(195.215625 132.220883)scale(0.1 -0.1)">
      <defs>
       <path d="M 9.8125 72.90625 
L 51.703125 72.90625 
L 51.703125 64.59375 
L 19.671875 64.59375 
L 19.671875 43.109375 
L 48.578125 43.109375 
L 48.578125 34.8125 
L 19.671875 34.8125 
L 19.671875 0 
L 9.8125 0 
z
" id="DejaVuSans-70"/>
       <path d="M 41.109375 46.296875 
Q 39.59375 47.171875 37.8125 47.578125 
Q 36.03125 48 33.890625 48 
Q 26.265625 48 22.1875 43.046875 
Q 18.109375 38.09375 18.109375 28.8125 
L 18.109375 0 
L 9.078125 0 
L 9.078125 54.6875 
L 18.109375 54.6875 
L 18.109375 46.1875 
Q 20.953125 51.171875 25.484375 53.578125 
Q 30.03125 56 36.53125 56 
Q 37.453125 56 38.578125 55.875 
Q 39.703125 55.765625 41.0625 55.515625 
z
" id="DejaVuSans-114"/>
       <path d="M 56.203125 29.59375 
L 56.203125 25.203125 
L 14.890625 25.203125 
Q 15.484375 15.921875 20.484375 11.0625 
Q 25.484375 6.203125 34.421875 6.203125 
Q 39.59375 6.203125 44.453125 7.46875 
Q 49.3125 8.734375 54.109375 11.28125 
L 54.109375 2.78125 
Q 49.265625 0.734375 44.1875 -0.34375 
Q 39.109375 -1.421875 33.890625 -1.421875 
Q 20.796875 -1.421875 13.15625 6.1875 
Q 5.515625 13.8125 5.515625 26.8125 
Q 5.515625 40.234375 12.765625 48.109375 
Q 20.015625 56 32.328125 56 
Q 43.359375 56 49.78125 48.890625 
Q 56.203125 41.796875 56.203125 29.59375 
z
M 47.21875 32.234375 
Q 47.125 39.59375 43.09375 43.984375 
Q 39.0625 48.390625 32.421875 48.390625 
Q 24.90625 48.390625 20.390625 44.140625 
Q 15.875 39.890625 15.1875 32.171875 
z
" id="DejaVuSans-101"/>
       <path d="M 48.78125 52.59375 
L 48.78125 44.1875 
Q 44.96875 46.296875 41.140625 47.34375 
Q 37.3125 48.390625 33.40625 48.390625 
Q 24.65625 48.390625 19.8125 42.84375 
Q 14.984375 37.3125 14.984375 27.296875 
Q 14.984375 17.28125 19.8125 11.734375 
Q 24.65625 6.203125 33.40625 6.203125 
Q 37.3125 6.203125 41.140625 7.25 
Q 44.96875 8.296875 48.78125 10.40625 
L 48.78125 2.09375 
Q 45.015625 0.34375 40.984375 -0.53125 
Q 36.96875 -1.421875 32.421875 -1.421875 
Q 20.0625 -1.421875 12.78125 6.34375 
Q 5.515625 14.109375 5.515625 27.296875 
Q 5.515625 40.671875 12.859375 48.328125 
Q 20.21875 56 33.015625 56 
Q 37.15625 56 41.109375 55.140625 
Q 45.0625 54.296875 48.78125 52.59375 
z
" id="DejaVuSans-99"/>
       <path d="M 8.5 21.578125 
L 8.5 54.6875 
L 17.484375 54.6875 
L 17.484375 21.921875 
Q 17.484375 14.15625 20.5 10.265625 
Q 23.53125 6.390625 29.59375 6.390625 
Q 36.859375 6.390625 41.078125 11.03125 
Q 45.3125 15.671875 45.3125 23.6875 
L 45.3125 54.6875 
L 54.296875 54.6875 
L 54.296875 0 
L 45.3125 0 
L 45.3125 8.40625 
Q 42.046875 3.421875 37.71875 1 
Q 33.40625 -1.421875 27.6875 -1.421875 
Q 18.265625 -1.421875 13.375 4.4375 
Q 8.5 10.296875 8.5 21.578125 
z
M 31.109375 56 
z
" id="DejaVuSans-117"/>
       <path d="M 54.890625 33.015625 
L 54.890625 0 
L 45.90625 0 
L 45.90625 32.71875 
Q 45.90625 40.484375 42.875 44.328125 
Q 39.84375 48.1875 33.796875 48.1875 
Q 26.515625 48.1875 22.3125 43.546875 
Q 18.109375 38.921875 18.109375 30.90625 
L 18.109375 0 
L 9.078125 0 
L 9.078125 54.6875 
L 18.109375 54.6875 
L 18.109375 46.1875 
Q 21.34375 51.125 25.703125 53.5625 
Q 30.078125 56 35.796875 56 
Q 45.21875 56 50.046875 50.171875 
Q 54.890625 44.34375 54.890625 33.015625 
z
" id="DejaVuSans-110"/>
       <path d="M 9.421875 54.6875 
L 18.40625 54.6875 
L 18.40625 0 
L 9.421875 0 
z
M 9.421875 75.984375 
L 18.40625 75.984375 
L 18.40625 64.59375 
L 9.421875 64.59375 
z
" id="DejaVuSans-105"/>
       <path d="M 34.28125 27.484375 
Q 23.390625 27.484375 19.1875 25 
Q 14.984375 22.515625 14.984375 16.5 
Q 14.984375 11.71875 18.140625 8.90625 
Q 21.296875 6.109375 26.703125 6.109375 
Q 34.1875 6.109375 38.703125 11.40625 
Q 43.21875 16.703125 43.21875 25.484375 
L 43.21875 27.484375 
z
M 52.203125 31.203125 
L 52.203125 0 
L 43.21875 0 
L 43.21875 8.296875 
Q 40.140625 3.328125 35.546875 0.953125 
Q 30.953125 -1.421875 24.3125 -1.421875 
Q 15.921875 -1.421875 10.953125 3.296875 
Q 6 8.015625 6 15.921875 
Q 6 25.140625 12.171875 29.828125 
Q 18.359375 34.515625 30.609375 34.515625 
L 43.21875 34.515625 
L 43.21875 35.40625 
Q 43.21875 41.609375 39.140625 45 
Q 35.0625 48.390625 27.6875 48.390625 
Q 23 48.390625 18.546875 47.265625 
Q 14.109375 46.140625 10.015625 43.890625 
L 10.015625 52.203125 
Q 14.9375 54.109375 19.578125 55.046875 
Q 24.21875 56 28.609375 56 
Q 40.484375 56 46.34375 49.84375 
Q 52.203125 43.703125 52.203125 31.203125 
z
" id="DejaVuSans-97"/>
       <path id="DejaVuSans-32"/>
       <path d="M 8.59375 75.984375 
L 29.296875 75.984375 
L 29.296875 69 
L 17.578125 69 
L 17.578125 -6.203125 
L 29.296875 -6.203125 
L 29.296875 -13.1875 
L 8.59375 -13.1875 
z
" id="DejaVuSans-91"/>
       <path d="M 45.40625 46.390625 
L 45.40625 75.984375 
L 54.390625 75.984375 
L 54.390625 0 
L 45.40625 0 
L 45.40625 8.203125 
Q 42.578125 3.328125 38.25 0.953125 
Q 33.9375 -1.421875 27.875 -1.421875 
Q 17.96875 -1.421875 11.734375 6.484375 
Q 5.515625 14.40625 5.515625 27.296875 
Q 5.515625 40.1875 11.734375 48.09375 
Q 17.96875 56 27.875 56 
Q 33.9375 56 38.25 53.625 
Q 42.578125 51.265625 45.40625 46.390625 
z
M 14.796875 27.296875 
Q 14.796875 17.390625 18.875 11.75 
Q 22.953125 6.109375 30.078125 6.109375 
Q 37.203125 6.109375 41.296875 11.75 
Q 45.40625 17.390625 45.40625 27.296875 
Q 45.40625 37.203125 41.296875 42.84375 
Q 37.203125 48.484375 30.078125 48.484375 
Q 22.953125 48.484375 18.875 42.84375 
Q 14.796875 37.203125 14.796875 27.296875 
z
" id="DejaVuSans-100"/>
       <path d="M 25.390625 72.90625 
L 33.6875 72.90625 
L 8.296875 -9.28125 
L 0 -9.28125 
z
" id="DejaVuSans-47"/>
       <path d="M 44.28125 53.078125 
L 44.28125 44.578125 
Q 40.484375 46.53125 36.375 47.5 
Q 32.28125 48.484375 27.875 48.484375 
Q 21.1875 48.484375 17.84375 46.4375 
Q 14.5 44.390625 14.5 40.28125 
Q 14.5 37.15625 16.890625 35.375 
Q 19.28125 33.59375 26.515625 31.984375 
L 29.59375 31.296875 
Q 39.15625 29.25 43.1875 25.515625 
Q 47.21875 21.78125 47.21875 15.09375 
Q 47.21875 7.46875 41.1875 3.015625 
Q 35.15625 -1.421875 24.609375 -1.421875 
Q 20.21875 -1.421875 15.453125 -0.5625 
Q 10.6875 0.296875 5.421875 2 
L 5.421875 11.28125 
Q 10.40625 8.6875 15.234375 7.390625 
Q 20.0625 6.109375 24.8125 6.109375 
Q 31.15625 6.109375 34.5625 8.28125 
Q 37.984375 10.453125 37.984375 14.40625 
Q 37.984375 18.0625 35.515625 20.015625 
Q 33.0625 21.96875 24.703125 23.78125 
L 21.578125 24.515625 
Q 13.234375 26.265625 9.515625 29.90625 
Q 5.8125 33.546875 5.8125 39.890625 
Q 5.8125 47.609375 11.28125 51.796875 
Q 16.75 56 26.8125 56 
Q 31.78125 56 36.171875 55.265625 
Q 40.578125 54.546875 44.28125 53.078125 
z
" id="DejaVuSans-115"/>
       <path d="M 30.421875 75.984375 
L 30.421875 -13.1875 
L 9.71875 -13.1875 
L 9.71875 -6.203125 
L 21.390625 -6.203125 
L 21.390625 69 
L 9.71875 69 
L 9.71875 75.984375 
z
" id="DejaVuSans-93"/>
      </defs>
      <use xlink:href="#DejaVuSans-70"/>
      <use x="50.269531" xlink:href="#DejaVuSans-114"/>
      <use x="89.132812" xlink:href="#DejaVuSans-101"/>
      <use x="150.65625" xlink:href="#DejaVuSans-99"/>
      <use x="205.636719" xlink:href="#DejaVuSans-117"/>
      <use x="269.015625" xlink:href="#DejaVuSans-101"/>
      <use x="330.539062" xlink:href="#DejaVuSans-110"/>
      <use x="393.917969" xlink:href="#DejaVuSans-99"/>
      <use x="448.898438" xlink:href="#DejaVuSans-105"/>
      <use x="476.681641" xlink:href="#DejaVuSans-97"/>
      <use x="537.960938" xlink:href="#DejaVuSans-32"/>
      <use x="569.748047" xlink:href="#DejaVuSans-91"/>
      <use x="608.761719" xlink:href="#DejaVuSans-114"/>
      <use x="649.875" xlink:href="#DejaVuSans-97"/>
      <use x="711.154297" xlink:href="#DejaVuSans-100"/>
      <use x="774.630859" xlink:href="#DejaVuSans-47"/>
      <use x="808.322266" xlink:href="#DejaVuSans-115"/>
      <use x="860.421875" xlink:href="#DejaVuSans-93"/>
     </g>
    </g>
   </g>
   <g id="matplotlib.axis_2">
    <g id="ytick_1">
     <g id="line2d_35">
      <path clip-path="url(#pfa0b89189d)" d="M 59.175 87.304669 
L 421.2 87.304669 
" style="fill:none;stroke:#b0b0b0;stroke-linecap:square;stroke-width:0.8;"/>
     </g>
     <g id="line2d_36">
      <defs>
       <path d="M 0 0 
L -3.5 0 
" id="m743c5834ad" style="stroke:#000000;stroke-width:0.8;"/>
      </defs>
      <g>
       <use style="stroke:#000000;stroke-width:0.8;" x="59.175" xlink:href="#m743c5834ad" y="87.304669"/>
      </g>
     </g>
     <g id="text_2">
      <!-- −40 -->
      <g transform="translate(31.070313 91.103888)scale(0.1 -0.1)">
       <defs>
        <path d="M 10.59375 35.5 
L 73.1875 35.5 
L 73.1875 27.203125 
L 10.59375 27.203125 
z
" id="DejaVuSans-8722"/>
        <path d="M 37.796875 64.3125 
L 12.890625 25.390625 
L 37.796875 25.390625 
z
M 35.203125 72.90625 
L 47.609375 72.90625 
L 47.609375 25.390625 
L 58.015625 25.390625 
L 58.015625 17.1875 
L 47.609375 17.1875 
L 47.609375 0 
L 37.796875 0 
L 37.796875 17.1875 
L 4.890625 17.1875 
L 4.890625 26.703125 
z
" id="DejaVuSans-52"/>
        <path d="M 31.78125 66.40625 
Q 24.171875 66.40625 20.328125 58.90625 
Q 16.5 51.421875 16.5 36.375 
Q 16.5 21.390625 20.328125 13.890625 
Q 24.171875 6.390625 31.78125 6.390625 
Q 39.453125 6.390625 43.28125 13.890625 
Q 47.125 21.390625 47.125 36.375 
Q 47.125 51.421875 43.28125 58.90625 
Q 39.453125 66.40625 31.78125 66.40625 
z
M 31.78125 74.21875 
Q 44.046875 74.21875 50.515625 64.515625 
Q 56.984375 54.828125 56.984375 36.375 
Q 56.984375 17.96875 50.515625 8.265625 
Q 44.046875 -1.421875 31.78125 -1.421875 
Q 19.53125 -1.421875 13.0625 8.265625 
Q 6.59375 17.96875 6.59375 36.375 
Q 6.59375 54.828125 13.0625 64.515625 
Q 19.53125 74.21875 31.78125 74.21875 
z
" id="DejaVuSans-48"/>
       </defs>
       <use xlink:href="#DejaVuSans-8722"/>
       <use x="83.789062" xlink:href="#DejaVuSans-52"/>
       <use x="147.412109" xlink:href="#DejaVuSans-48"/>
      </g>
     </g>
    </g>
    <g id="ytick_2">
     <g id="line2d_37">
      <path clip-path="url(#pfa0b89189d)" d="M 59.175 51.389316 
L 421.2 51.389316 
" style="fill:none;stroke:#b0b0b0;stroke-linecap:square;stroke-width:0.8;"/>
     </g>
     <g id="line2d_38">
      <g>
       <use style="stroke:#000000;stroke-width:0.8;" x="59.175" xlink:href="#m743c5834ad" y="51.389316"/>
      </g>
     </g>
     <g id="text_3">
      <!-- −20 -->
      <g transform="translate(31.070313 55.188535)scale(0.1 -0.1)">
       <defs>
        <path d="M 19.1875 8.296875 
L 53.609375 8.296875 
L 53.609375 0 
L 7.328125 0 
L 7.328125 8.296875 
Q 12.9375 14.109375 22.625 23.890625 
Q 32.328125 33.6875 34.8125 36.53125 
Q 39.546875 41.84375 41.421875 45.53125 
Q 43.3125 49.21875 43.3125 52.78125 
Q 43.3125 58.59375 39.234375 62.25 
Q 35.15625 65.921875 28.609375 65.921875 
Q 23.96875 65.921875 18.8125 64.3125 
Q 13.671875 62.703125 7.8125 59.421875 
L 7.8125 69.390625 
Q 13.765625 71.78125 18.9375 73 
Q 24.125 74.21875 28.421875 74.21875 
Q 39.75 74.21875 46.484375 68.546875 
Q 53.21875 62.890625 53.21875 53.421875 
Q 53.21875 48.921875 51.53125 44.890625 
Q 49.859375 40.875 45.40625 35.40625 
Q 44.1875 33.984375 37.640625 27.21875 
Q 31.109375 20.453125 19.1875 8.296875 
z
" id="DejaVuSans-50"/>
       </defs>
       <use xlink:href="#DejaVuSans-8722"/>
       <use x="83.789062" xlink:href="#DejaVuSans-50"/>
       <use x="147.412109" xlink:href="#DejaVuSans-48"/>
      </g>
     </g>
    </g>
    <g id="ytick_3">
     <g id="line2d_39">
      <path clip-path="url(#pfa0b89189d)" d="M 59.175 15.473962 
L 421.2 15.473962 
" style="fill:none;stroke:#b0b0b0;stroke-linecap:square;stroke-width:0.8;"/>
     </g>
     <g id="line2d_40">
      <g>
       <use style="stroke:#000000;stroke-width:0.8;" x="59.175" xlink:href="#m743c5834ad" y="15.473962"/>
      </g>
     </g>
     <g id="text_4">
      <!-- 0 -->
      <g transform="translate(45.8125 19.273181)scale(0.1 -0.1)">
       <use xlink:href="#DejaVuSans-48"/>
      </g>
     </g>
    </g>
    <g id="text_5">
     <!-- Ganancia [dB] -->
     <g transform="translate(24.990625 101.348723)rotate(-90)scale(0.1 -0.1)">
      <defs>
       <path d="M 59.515625 10.40625 
L 59.515625 29.984375 
L 43.40625 29.984375 
L 43.40625 38.09375 
L 69.28125 38.09375 
L 69.28125 6.78125 
Q 63.578125 2.734375 56.6875 0.65625 
Q 49.8125 -1.421875 42 -1.421875 
Q 24.90625 -1.421875 15.25 8.5625 
Q 5.609375 18.5625 5.609375 36.375 
Q 5.609375 54.25 15.25 64.234375 
Q 24.90625 74.21875 42 74.21875 
Q 49.125 74.21875 55.546875 72.453125 
Q 61.96875 70.703125 67.390625 67.28125 
L 67.390625 56.78125 
Q 61.921875 61.421875 55.765625 63.765625 
Q 49.609375 66.109375 42.828125 66.109375 
Q 29.4375 66.109375 22.71875 58.640625 
Q 16.015625 51.171875 16.015625 36.375 
Q 16.015625 21.625 22.71875 14.15625 
Q 29.4375 6.6875 42.828125 6.6875 
Q 48.046875 6.6875 52.140625 7.59375 
Q 56.25 8.5 59.515625 10.40625 
z
" id="DejaVuSans-71"/>
       <path d="M 19.671875 34.8125 
L 19.671875 8.109375 
L 35.5 8.109375 
Q 43.453125 8.109375 47.28125 11.40625 
Q 51.125 14.703125 51.125 21.484375 
Q 51.125 28.328125 47.28125 31.5625 
Q 43.453125 34.8125 35.5 34.8125 
z
M 19.671875 64.796875 
L 19.671875 42.828125 
L 34.28125 42.828125 
Q 41.5 42.828125 45.03125 45.53125 
Q 48.578125 48.25 48.578125 53.8125 
Q 48.578125 59.328125 45.03125 62.0625 
Q 41.5 64.796875 34.28125 64.796875 
z
M 9.8125 72.90625 
L 35.015625 72.90625 
Q 46.296875 72.90625 52.390625 68.21875 
Q 58.5 63.53125 58.5 54.890625 
Q 58.5 48.1875 55.375 44.234375 
Q 52.25 40.28125 46.1875 39.3125 
Q 53.46875 37.75 57.5 32.78125 
Q 61.53125 27.828125 61.53125 20.40625 
Q 61.53125 10.640625 54.890625 5.3125 
Q 48.25 0 35.984375 0 
L 9.8125 0 
z
" id="DejaVuSans-66"/>
      </defs>
      <use xlink:href="#DejaVuSans-71"/>
      <use x="77.490234" xlink:href="#DejaVuSans-97"/>
      <use x="138.769531" xlink:href="#DejaVuSans-110"/>
      <use x="202.148438" xlink:href="#DejaVuSans-97"/>
      <use x="263.427734" xlink:href="#DejaVuSans-110"/>
      <use x="326.806641" xlink:href="#DejaVuSans-99"/>
      <use x="381.787109" xlink:href="#DejaVuSans-105"/>
      <use x="409.570312" xlink:href="#DejaVuSans-97"/>
      <use x="470.849609" xlink:href="#DejaVuSans-32"/>
      <use x="502.636719" xlink:href="#DejaVuSans-91"/>
      <use x="541.650391" xlink:href="#DejaVuSans-100"/>
      <use x="605.126953" xlink:href="#DejaVuSans-66"/>
      <use x="673.730469" xlink:href="#DejaVuSans-93"/>
     </g>
    </g>
   </g>
   <g id="line2d_41">
    <path clip-path="url(#pfa0b89189d)" d="M 75.630682 15.81013 
L 78.955062 15.814965 
L 82.279442 15.82052 
L 85.603822 15.826902 
L 88.928202 15.834233 
L 92.252583 15.842654 
L 95.576963 15.852325 
L 98.901343 15.863429 
L 102.225723 15.876176 
L 105.550103 15.890807 
L 108.874483 15.907595 
L 112.198864 15.926852 
L 115.523244 15.948935 
L 118.847624 15.974248 
L 122.172004 16.003251 
L 125.496384 16.036464 
L 128.820764 16.074477 
L 132.145145 16.117955 
L 135.469525 16.167646 
L 138.793905 16.224391 
L 142.118285 16.289127 
L 145.442665 16.362899 
L 148.767045 16.446866 
L 152.091426 16.542304 
L 155.415806 16.65061 
L 158.740186 16.773304 
L 162.064566 16.912028 
L 165.388946 17.068536 
L 168.713326 17.244684 
L 172.037707 17.442413 
L 175.362087 17.663726 
L 178.686467 17.910655 
L 182.010847 18.185225 
L 185.335227 18.489411 
L 188.659607 18.82509 
L 191.983988 19.193988 
L 195.308368 19.597627 
L 198.632748 20.037281 
L 201.957128 20.513924 
L 205.281508 21.028203 
L 208.605888 21.580405 
L 211.930269 22.170453 
L 215.254649 22.797905 
L 218.579029 23.461973 
L 221.903409 24.161551 
L 225.227789 24.895254 
L 228.552169 25.661467 
L 231.87655 26.458393 
L 235.20093 27.284109 
L 238.52531 28.136613 
L 241.84969 29.013871 
L 245.17407 29.91386 
L 248.49845 30.8346 
L 251.822831 31.774183 
L 255.147211 32.730794 
L 258.471591 33.702726 
L 261.795971 34.688389 
L 265.120351 35.686313 
L 268.444731 36.695152 
L 271.769112 37.713682 
L 275.093492 38.740794 
L 278.417872 39.775487 
L 281.742252 40.816866 
L 285.066632 41.864131 
L 288.391012 42.91657 
L 291.715393 43.97355 
L 295.039773 45.034513 
L 298.364153 46.098964 
L 301.688533 47.166467 
L 305.012913 48.236639 
L 308.337293 49.309144 
L 311.661674 50.383686 
L 314.986054 51.460005 
L 318.310434 52.537876 
L 321.634814 53.617099 
L 324.959194 54.697502 
L 328.283574 55.778932 
L 331.607955 56.861258 
L 334.932335 57.944364 
L 338.256715 59.02815 
L 341.581095 60.112527 
L 344.905475 61.197419 
L 348.229855 62.282759 
L 351.554236 63.36849 
L 354.878616 64.45456 
L 358.202996 65.540926 
L 361.527376 66.62755 
L 364.851756 67.714397 
L 368.176136 68.801439 
L 371.500517 69.88865 
L 374.824897 70.976009 
L 378.149277 72.063495 
L 381.473657 73.151094 
L 384.798037 74.238789 
L 388.122417 75.326569 
L 391.446798 76.414423 
L 394.771178 77.50234 
L 398.095558 78.590313 
L 401.419938 79.678334 
L 404.744318 80.766397 
" style="fill:none;stroke:#1f77b4;stroke-linecap:square;stroke-width:1.5;"/>
   </g>
   <g id="line2d_42">
    <path clip-path="url(#pfa0b89189d)" d="M 75.630682 15.803946 
L 78.955062 15.807859 
L 82.279442 15.812355 
L 85.603822 15.817521 
L 88.928202 15.823456 
L 92.252583 15.830275 
L 95.576963 15.838108 
L 98.901343 15.847104 
L 102.225723 15.857435 
L 105.550103 15.869295 
L 108.874483 15.88291 
L 112.198864 15.898534 
L 115.523244 15.916459 
L 118.847624 15.937018 
L 122.172004 15.960589 
L 125.496384 15.987603 
L 128.820764 16.018546 
L 132.145145 16.053973 
L 135.469525 16.094507 
L 138.793905 16.140852 
L 142.118285 16.1938 
L 145.442665 16.254236 
L 148.767045 16.323149 
L 152.091426 16.401636 
L 155.415806 16.490913 
L 158.740186 16.592311 
L 162.064566 16.707289 
L 165.388946 16.837424 
L 168.713326 16.984412 
L 172.037707 17.150058 
L 175.362087 17.336262 
L 178.686467 17.544997 
L 182.010847 17.778285 
L 185.335227 18.038158 
L 188.659607 18.326625 
L 191.983988 18.64562 
L 195.308368 18.996952 
L 198.632748 19.382259 
L 201.957128 19.80295 
L 205.281508 20.260159 
L 208.605888 20.75471 
L 211.930269 21.287079 
L 215.254649 21.857381 
L 218.579029 22.465362 
L 221.903409 23.110412 
L 225.227789 23.791588 
L 228.552169 24.507644 
L 231.87655 25.257081 
L 235.20093 26.038189 
L 238.52531 26.849105 
L 241.84969 27.687861 
L 245.17407 28.552436 
L 248.49845 29.440796 
L 251.822831 30.350935 
L 255.147211 31.280903 
L 258.471591 32.228835 
L 261.795971 33.192966 
L 265.120351 34.171643 
L 268.444731 35.163335 
L 271.769112 36.16663 
L 275.093492 37.180241 
L 278.417872 38.202999 
L 281.742252 39.233848 
L 285.066632 40.271838 
L 288.391012 41.316122 
L 291.715393 42.36594 
L 295.039773 43.420622 
L 298.364153 44.479569 
L 301.688533 45.542255 
L 305.012913 46.608214 
L 308.337293 47.677036 
L 311.661674 48.748361 
L 314.986054 49.821873 
L 318.310434 50.897293 
L 321.634814 51.97438 
L 324.959194 53.052919 
L 328.283574 54.132726 
L 331.607955 55.213637 
L 334.932335 56.29551 
L 338.256715 57.378222 
L 341.581095 58.461664 
L 344.905475 59.545742 
L 348.229855 60.630374 
L 351.554236 61.715488 
L 354.878616 62.801021 
L 358.202996 63.88692 
L 361.527376 64.973137 
L 364.851756 66.05963 
L 368.176136 67.146364 
L 371.500517 68.233307 
L 374.824897 69.320433 
L 378.149277 70.407717 
L 381.473657 71.495139 
L 384.798037 72.582681 
L 388.122417 73.670328 
L 391.446798 74.758065 
L 394.771178 75.845882 
L 398.095558 76.933767 
L 401.419938 78.021711 
L 404.744318 79.109708 
" style="fill:none;stroke:#ff7f0e;stroke-linecap:square;stroke-width:1.5;"/>
   </g>
   <g id="line2d_43">
    <path clip-path="url(#pfa0b89189d)" d="M 75.630682 15.791929 
L 78.955062 15.794048 
L 82.279442 15.796484 
L 85.603822 15.799283 
L 88.928202 15.802501 
L 92.252583 15.806199 
L 95.576963 15.81045 
L 98.901343 15.815335 
L 102.225723 15.820949 
L 105.550103 15.827399 
L 108.874483 15.83481 
L 112.198864 15.843324 
L 115.523244 15.853105 
L 118.847624 15.864338 
L 122.172004 15.877238 
L 125.496384 15.892049 
L 128.820764 15.909051 
L 132.145145 15.928564 
L 135.469525 15.950953 
L 138.793905 15.976632 
L 142.118285 16.006076 
L 145.442665 16.039823 
L 148.767045 16.078484 
L 152.091426 16.122752 
L 155.415806 16.17341 
L 158.740186 16.231341 
L 162.064566 16.297539 
L 165.388946 16.373117 
L 168.713326 16.459321 
L 172.037707 16.557537 
L 175.362087 16.669299 
L 178.686467 16.796298 
L 182.010847 16.940389 
L 185.335227 17.103588 
L 188.659607 17.288077 
L 191.983988 17.496191 
L 195.308368 17.730413 
L 198.632748 17.993352 
L 201.957128 18.287721 
L 205.281508 18.616306 
L 208.605888 18.981931 
L 211.930269 19.387415 
L 215.254649 19.83553 
L 218.579029 20.328954 
L 221.903409 20.870225 
L 225.227789 21.461705 
L 228.552169 22.105544 
L 231.87655 22.803653 
L 235.20093 23.557687 
L 238.52531 24.36904 
L 241.84969 25.238841 
L 245.17407 26.167961 
L 248.49845 27.157024 
L 251.822831 28.20641 
L 255.147211 29.316269 
L 258.471591 30.486519 
L 261.795971 31.716845 
L 265.120351 33.006695 
L 268.444731 34.355271 
L 271.769112 35.761519 
L 275.093492 37.224121 
L 278.417872 38.741497 
L 281.742252 40.311809 
L 285.066632 41.932973 
L 288.391012 43.602686 
L 291.715393 45.318456 
L 295.039773 47.077641 
L 298.364153 48.877492 
L 301.688533 50.715199 
L 305.012913 52.587934 
L 308.337293 54.492897 
L 311.661674 56.427351 
L 314.986054 58.388653 
L 318.310434 60.374283 
L 321.634814 62.38186 
L 324.959194 64.409158 
L 328.283574 66.454113 
L 331.607955 68.514823 
L 334.932335 70.589552 
L 338.256715 72.676719 
L 341.581095 74.774896 
L 344.905475 76.8828 
L 348.229855 78.999279 
L 351.554236 81.123306 
L 354.878616 83.253968 
L 358.202996 85.390452 
L 361.527376 87.532041 
L 364.851756 89.678102 
L 368.176136 91.828076 
L 371.500517 93.981471 
L 374.824897 96.137856 
L 378.149277 98.296852 
L 381.473657 100.458127 
L 384.798037 102.621391 
L 388.122417 104.786388 
L 391.446798 106.952897 
L 394.771178 109.120723 
L 398.095558 111.289697 
L 401.419938 113.459671 
L 404.744318 115.630516 
" style="fill:none;stroke:#2ca02c;stroke-linecap:square;stroke-width:1.5;"/>
   </g>
   <g id="patch_3">
    <path d="M 59.175 120.622445 
L 59.175 10.8 
" style="fill:none;stroke:#000000;stroke-linecap:square;stroke-linejoin:miter;stroke-width:0.8;"/>
   </g>
   <g id="patch_4">
    <path d="M 421.2 120.622445 
L 421.2 10.8 
" style="fill:none;stroke:#000000;stroke-linecap:square;stroke-linejoin:miter;stroke-width:0.8;"/>
   </g>
   <g id="patch_5">
    <path d="M 59.175 120.622445 
L 421.2 120.622445 
" style="fill:none;stroke:#000000;stroke-linecap:square;stroke-linejoin:miter;stroke-width:0.8;"/>
   </g>
   <g id="patch_6">
    <path d="M 59.175 10.8 
L 421.2 10.8 
" style="fill:none;stroke:#000000;stroke-linecap:square;stroke-linejoin:miter;stroke-width:0.8;"/>
   </g>
   <g id="legend_1">
    <g id="patch_7">
     <path d="M 66.175 115.622445 
L 195.064063 115.622445 
Q 197.064063 115.622445 197.064063 113.622445 
L 197.064063 70.58807 
Q 197.064063 68.58807 195.064063 68.58807 
L 66.175 68.58807 
Q 64.175 68.58807 64.175 70.58807 
L 64.175 113.622445 
Q 64.175 115.622445 66.175 115.622445 
z
" style="fill:#ffffff;opacity:0.8;stroke:#cccccc;stroke-linejoin:miter;"/>
    </g>
    <g id="line2d_44">
     <path d="M 68.175 76.686508 
L 88.175 76.686508 
" style="fill:none;stroke:#1f77b4;stroke-linecap:square;stroke-width:1.5;"/>
    </g>
    <g id="line2d_45"/>
    <g id="text_6">
     <!-- Ziegler - Nichols -->
     <g transform="translate(96.175 80.186508)scale(0.1 -0.1)">
      <defs>
       <path d="M 5.609375 72.90625 
L 62.890625 72.90625 
L 62.890625 65.375 
L 16.796875 8.296875 
L 64.015625 8.296875 
L 64.015625 0 
L 4.5 0 
L 4.5 7.515625 
L 50.59375 64.59375 
L 5.609375 64.59375 
z
" id="DejaVuSans-90"/>
       <path d="M 45.40625 27.984375 
Q 45.40625 37.75 41.375 43.109375 
Q 37.359375 48.484375 30.078125 48.484375 
Q 22.859375 48.484375 18.828125 43.109375 
Q 14.796875 37.75 14.796875 27.984375 
Q 14.796875 18.265625 18.828125 12.890625 
Q 22.859375 7.515625 30.078125 7.515625 
Q 37.359375 7.515625 41.375 12.890625 
Q 45.40625 18.265625 45.40625 27.984375 
z
M 54.390625 6.78125 
Q 54.390625 -7.171875 48.1875 -13.984375 
Q 42 -20.796875 29.203125 -20.796875 
Q 24.46875 -20.796875 20.265625 -20.09375 
Q 16.0625 -19.390625 12.109375 -17.921875 
L 12.109375 -9.1875 
Q 16.0625 -11.328125 19.921875 -12.34375 
Q 23.78125 -13.375 27.78125 -13.375 
Q 36.625 -13.375 41.015625 -8.765625 
Q 45.40625 -4.15625 45.40625 5.171875 
L 45.40625 9.625 
Q 42.625 4.78125 38.28125 2.390625 
Q 33.9375 0 27.875 0 
Q 17.828125 0 11.671875 7.65625 
Q 5.515625 15.328125 5.515625 27.984375 
Q 5.515625 40.671875 11.671875 48.328125 
Q 17.828125 56 27.875 56 
Q 33.9375 56 38.28125 53.609375 
Q 42.625 51.21875 45.40625 46.390625 
L 45.40625 54.6875 
L 54.390625 54.6875 
z
" id="DejaVuSans-103"/>
       <path d="M 9.421875 75.984375 
L 18.40625 75.984375 
L 18.40625 0 
L 9.421875 0 
z
" id="DejaVuSans-108"/>
       <path d="M 4.890625 31.390625 
L 31.203125 31.390625 
L 31.203125 23.390625 
L 4.890625 23.390625 
z
" id="DejaVuSans-45"/>
       <path d="M 9.8125 72.90625 
L 23.09375 72.90625 
L 55.421875 11.921875 
L 55.421875 72.90625 
L 64.984375 72.90625 
L 64.984375 0 
L 51.703125 0 
L 19.390625 60.984375 
L 19.390625 0 
L 9.8125 0 
z
" id="DejaVuSans-78"/>
       <path d="M 54.890625 33.015625 
L 54.890625 0 
L 45.90625 0 
L 45.90625 32.71875 
Q 45.90625 40.484375 42.875 44.328125 
Q 39.84375 48.1875 33.796875 48.1875 
Q 26.515625 48.1875 22.3125 43.546875 
Q 18.109375 38.921875 18.109375 30.90625 
L 18.109375 0 
L 9.078125 0 
L 9.078125 75.984375 
L 18.109375 75.984375 
L 18.109375 46.1875 
Q 21.34375 51.125 25.703125 53.5625 
Q 30.078125 56 35.796875 56 
Q 45.21875 56 50.046875 50.171875 
Q 54.890625 44.34375 54.890625 33.015625 
z
" id="DejaVuSans-104"/>
       <path d="M 30.609375 48.390625 
Q 23.390625 48.390625 19.1875 42.75 
Q 14.984375 37.109375 14.984375 27.296875 
Q 14.984375 17.484375 19.15625 11.84375 
Q 23.34375 6.203125 30.609375 6.203125 
Q 37.796875 6.203125 41.984375 11.859375 
Q 46.1875 17.53125 46.1875 27.296875 
Q 46.1875 37.015625 41.984375 42.703125 
Q 37.796875 48.390625 30.609375 48.390625 
z
M 30.609375 56 
Q 42.328125 56 49.015625 48.375 
Q 55.71875 40.765625 55.71875 27.296875 
Q 55.71875 13.875 49.015625 6.21875 
Q 42.328125 -1.421875 30.609375 -1.421875 
Q 18.84375 -1.421875 12.171875 6.21875 
Q 5.515625 13.875 5.515625 27.296875 
Q 5.515625 40.765625 12.171875 48.375 
Q 18.84375 56 30.609375 56 
z
" id="DejaVuSans-111"/>
      </defs>
      <use xlink:href="#DejaVuSans-90"/>
      <use x="68.505859" xlink:href="#DejaVuSans-105"/>
      <use x="96.289062" xlink:href="#DejaVuSans-101"/>
      <use x="157.8125" xlink:href="#DejaVuSans-103"/>
      <use x="221.289062" xlink:href="#DejaVuSans-108"/>
      <use x="249.072266" xlink:href="#DejaVuSans-101"/>
      <use x="310.595703" xlink:href="#DejaVuSans-114"/>
      <use x="351.708984" xlink:href="#DejaVuSans-32"/>
      <use x="383.496094" xlink:href="#DejaVuSans-45"/>
      <use x="419.580078" xlink:href="#DejaVuSans-32"/>
      <use x="451.367188" xlink:href="#DejaVuSans-78"/>
      <use x="526.171875" xlink:href="#DejaVuSans-105"/>
      <use x="553.955078" xlink:href="#DejaVuSans-99"/>
      <use x="608.935547" xlink:href="#DejaVuSans-104"/>
      <use x="672.314453" xlink:href="#DejaVuSans-111"/>
      <use x="733.496094" xlink:href="#DejaVuSans-108"/>
      <use x="761.279297" xlink:href="#DejaVuSans-115"/>
     </g>
    </g>
    <g id="line2d_46">
     <path d="M 68.175 91.364633 
L 88.175 91.364633 
" style="fill:none;stroke:#ff7f0e;stroke-linecap:square;stroke-width:1.5;"/>
    </g>
    <g id="line2d_47"/>
    <g id="text_7">
     <!-- Hägglund -->
     <g transform="translate(96.175 94.864633)scale(0.1 -0.1)">
      <defs>
       <path d="M 9.8125 72.90625 
L 19.671875 72.90625 
L 19.671875 43.015625 
L 55.515625 43.015625 
L 55.515625 72.90625 
L 65.375 72.90625 
L 65.375 0 
L 55.515625 0 
L 55.515625 34.71875 
L 19.671875 34.71875 
L 19.671875 0 
L 9.8125 0 
z
" id="DejaVuSans-72"/>
       <path d="M 34.28125 27.484375 
Q 23.390625 27.484375 19.1875 25 
Q 14.984375 22.515625 14.984375 16.5 
Q 14.984375 11.71875 18.140625 8.90625 
Q 21.296875 6.109375 26.703125 6.109375 
Q 34.1875 6.109375 38.703125 11.40625 
Q 43.21875 16.703125 43.21875 25.484375 
L 43.21875 27.484375 
z
M 52.203125 31.203125 
L 52.203125 0 
L 43.21875 0 
L 43.21875 8.296875 
Q 40.140625 3.328125 35.546875 0.953125 
Q 30.953125 -1.421875 24.3125 -1.421875 
Q 15.921875 -1.421875 10.953125 3.296875 
Q 6 8.015625 6 15.921875 
Q 6 25.140625 12.171875 29.828125 
Q 18.359375 34.515625 30.609375 34.515625 
L 43.21875 34.515625 
L 43.21875 35.40625 
Q 43.21875 41.609375 39.140625 45 
Q 35.0625 48.390625 27.6875 48.390625 
Q 23 48.390625 18.546875 47.265625 
Q 14.109375 46.140625 10.015625 43.890625 
L 10.015625 52.203125 
Q 14.9375 54.109375 19.578125 55.046875 
Q 24.21875 56 28.609375 56 
Q 40.484375 56 46.34375 49.84375 
Q 52.203125 43.703125 52.203125 31.203125 
z
M 33.59375 75.78125 
L 43.5 75.78125 
L 43.5 65.921875 
L 33.59375 65.921875 
z
M 14.5 75.78125 
L 24.40625 75.78125 
L 24.40625 65.921875 
L 14.5 65.921875 
z
" id="DejaVuSans-228"/>
      </defs>
      <use xlink:href="#DejaVuSans-72"/>
      <use x="75.195312" xlink:href="#DejaVuSans-228"/>
      <use x="136.474609" xlink:href="#DejaVuSans-103"/>
      <use x="199.951172" xlink:href="#DejaVuSans-103"/>
      <use x="263.427734" xlink:href="#DejaVuSans-108"/>
      <use x="291.210938" xlink:href="#DejaVuSans-117"/>
      <use x="354.589844" xlink:href="#DejaVuSans-110"/>
      <use x="417.96875" xlink:href="#DejaVuSans-100"/>
     </g>
    </g>
    <g id="line2d_48">
     <path d="M 68.175 106.042758 
L 88.175 106.042758 
" style="fill:none;stroke:#2ca02c;stroke-linecap:square;stroke-width:1.5;"/>
    </g>
    <g id="line2d_49"/>
    <g id="text_8">
     <!-- Stark - Mollenkamp -->
     <g transform="translate(96.175 109.542758)scale(0.1 -0.1)">
      <defs>
       <path d="M 53.515625 70.515625 
L 53.515625 60.890625 
Q 47.90625 63.578125 42.921875 64.890625 
Q 37.9375 66.21875 33.296875 66.21875 
Q 25.25 66.21875 20.875 63.09375 
Q 16.5 59.96875 16.5 54.203125 
Q 16.5 49.359375 19.40625 46.890625 
Q 22.3125 44.4375 30.421875 42.921875 
L 36.375 41.703125 
Q 47.40625 39.59375 52.65625 34.296875 
Q 57.90625 29 57.90625 20.125 
Q 57.90625 9.515625 50.796875 4.046875 
Q 43.703125 -1.421875 29.984375 -1.421875 
Q 24.8125 -1.421875 18.96875 -0.25 
Q 13.140625 0.921875 6.890625 3.21875 
L 6.890625 13.375 
Q 12.890625 10.015625 18.65625 8.296875 
Q 24.421875 6.59375 29.984375 6.59375 
Q 38.421875 6.59375 43.015625 9.90625 
Q 47.609375 13.234375 47.609375 19.390625 
Q 47.609375 24.75 44.3125 27.78125 
Q 41.015625 30.8125 33.5 32.328125 
L 27.484375 33.5 
Q 16.453125 35.6875 11.515625 40.375 
Q 6.59375 45.0625 6.59375 53.421875 
Q 6.59375 63.09375 13.40625 68.65625 
Q 20.21875 74.21875 32.171875 74.21875 
Q 37.3125 74.21875 42.625 73.28125 
Q 47.953125 72.359375 53.515625 70.515625 
z
" id="DejaVuSans-83"/>
       <path d="M 18.3125 70.21875 
L 18.3125 54.6875 
L 36.8125 54.6875 
L 36.8125 47.703125 
L 18.3125 47.703125 
L 18.3125 18.015625 
Q 18.3125 11.328125 20.140625 9.421875 
Q 21.96875 7.515625 27.59375 7.515625 
L 36.8125 7.515625 
L 36.8125 0 
L 27.59375 0 
Q 17.1875 0 13.234375 3.875 
Q 9.28125 7.765625 9.28125 18.015625 
L 9.28125 47.703125 
L 2.6875 47.703125 
L 2.6875 54.6875 
L 9.28125 54.6875 
L 9.28125 70.21875 
z
" id="DejaVuSans-116"/>
       <path d="M 9.078125 75.984375 
L 18.109375 75.984375 
L 18.109375 31.109375 
L 44.921875 54.6875 
L 56.390625 54.6875 
L 27.390625 29.109375 
L 57.625 0 
L 45.90625 0 
L 18.109375 26.703125 
L 18.109375 0 
L 9.078125 0 
z
" id="DejaVuSans-107"/>
       <path d="M 9.8125 72.90625 
L 24.515625 72.90625 
L 43.109375 23.296875 
L 61.8125 72.90625 
L 76.515625 72.90625 
L 76.515625 0 
L 66.890625 0 
L 66.890625 64.015625 
L 48.09375 14.015625 
L 38.1875 14.015625 
L 19.390625 64.015625 
L 19.390625 0 
L 9.8125 0 
z
" id="DejaVuSans-77"/>
       <path d="M 52 44.1875 
Q 55.375 50.25 60.0625 53.125 
Q 64.75 56 71.09375 56 
Q 79.640625 56 84.28125 50.015625 
Q 88.921875 44.046875 88.921875 33.015625 
L 88.921875 0 
L 79.890625 0 
L 79.890625 32.71875 
Q 79.890625 40.578125 77.09375 44.375 
Q 74.3125 48.1875 68.609375 48.1875 
Q 61.625 48.1875 57.5625 43.546875 
Q 53.515625 38.921875 53.515625 30.90625 
L 53.515625 0 
L 44.484375 0 
L 44.484375 32.71875 
Q 44.484375 40.625 41.703125 44.40625 
Q 38.921875 48.1875 33.109375 48.1875 
Q 26.21875 48.1875 22.15625 43.53125 
Q 18.109375 38.875 18.109375 30.90625 
L 18.109375 0 
L 9.078125 0 
L 9.078125 54.6875 
L 18.109375 54.6875 
L 18.109375 46.1875 
Q 21.1875 51.21875 25.484375 53.609375 
Q 29.78125 56 35.6875 56 
Q 41.65625 56 45.828125 52.96875 
Q 50 49.953125 52 44.1875 
z
" id="DejaVuSans-109"/>
       <path d="M 18.109375 8.203125 
L 18.109375 -20.796875 
L 9.078125 -20.796875 
L 9.078125 54.6875 
L 18.109375 54.6875 
L 18.109375 46.390625 
Q 20.953125 51.265625 25.265625 53.625 
Q 29.59375 56 35.59375 56 
Q 45.5625 56 51.78125 48.09375 
Q 58.015625 40.1875 58.015625 27.296875 
Q 58.015625 14.40625 51.78125 6.484375 
Q 45.5625 -1.421875 35.59375 -1.421875 
Q 29.59375 -1.421875 25.265625 0.953125 
Q 20.953125 3.328125 18.109375 8.203125 
z
M 48.6875 27.296875 
Q 48.6875 37.203125 44.609375 42.84375 
Q 40.53125 48.484375 33.40625 48.484375 
Q 26.265625 48.484375 22.1875 42.84375 
Q 18.109375 37.203125 18.109375 27.296875 
Q 18.109375 17.390625 22.1875 11.75 
Q 26.265625 6.109375 33.40625 6.109375 
Q 40.53125 6.109375 44.609375 11.75 
Q 48.6875 17.390625 48.6875 27.296875 
z
" id="DejaVuSans-112"/>
      </defs>
      <use xlink:href="#DejaVuSans-83"/>
      <use x="63.476562" xlink:href="#DejaVuSans-116"/>
      <use x="102.685547" xlink:href="#DejaVuSans-97"/>
      <use x="163.964844" xlink:href="#DejaVuSans-114"/>
      <use x="205.078125" xlink:href="#DejaVuSans-107"/>
      <use x="262.988281" xlink:href="#DejaVuSans-32"/>
      <use x="294.775391" xlink:href="#DejaVuSans-45"/>
      <use x="330.859375" xlink:href="#DejaVuSans-32"/>
      <use x="362.646484" xlink:href="#DejaVuSans-77"/>
      <use x="448.925781" xlink:href="#DejaVuSans-111"/>
      <use x="510.107422" xlink:href="#DejaVuSans-108"/>
      <use x="537.890625" xlink:href="#DejaVuSans-108"/>
      <use x="565.673828" xlink:href="#DejaVuSans-101"/>
      <use x="627.197266" xlink:href="#DejaVuSans-110"/>
      <use x="690.576172" xlink:href="#DejaVuSans-107"/>
      <use x="746.736328" xlink:href="#DejaVuSans-97"/>
      <use x="808.015625" xlink:href="#DejaVuSans-109"/>
      <use x="905.427734" xlink:href="#DejaVuSans-112"/>
     </g>
    </g>
   </g>
  </g>
  <g id="axes_2">
   <g id="patch_8">
    <path d="M 59.175 256.4 
L 421.2 256.4 
L 421.2 146.577555 
L 59.175 146.577555 
z
" style="fill:#ffffff;"/>
   </g>
   <g id="matplotlib.axis_3">
    <g id="xtick_31">
     <g id="line2d_50">
      <path clip-path="url(#p43622629b7)" d="M 75.630682 256.4 
L 75.630682 146.577555 
" style="fill:none;stroke:#b0b0b0;stroke-linecap:square;stroke-width:0.8;"/>
     </g>
     <g id="line2d_51">
      <g>
       <use style="stroke:#000000;stroke-width:0.8;" x="75.630682" xlink:href="#md108198d07" y="256.4"/>
      </g>
     </g>
     <g id="text_9">
      <!-- $\mathdefault{10^{0}}$ -->
      <g transform="translate(66.830682 270.998438)scale(0.1 -0.1)">
       <defs>
        <path d="M 12.40625 8.296875 
L 28.515625 8.296875 
L 28.515625 63.921875 
L 10.984375 60.40625 
L 10.984375 69.390625 
L 28.421875 72.90625 
L 38.28125 72.90625 
L 38.28125 8.296875 
L 54.390625 8.296875 
L 54.390625 0 
L 12.40625 0 
z
" id="DejaVuSans-49"/>
       </defs>
       <use transform="translate(0 0.765625)" xlink:href="#DejaVuSans-49"/>
       <use transform="translate(63.623047 0.765625)" xlink:href="#DejaVuSans-48"/>
       <use transform="translate(128.203125 39.046875)scale(0.7)" xlink:href="#DejaVuSans-48"/>
      </g>
     </g>
    </g>
    <g id="xtick_32">
     <g id="line2d_52">
      <path clip-path="url(#p43622629b7)" d="M 185.335227 256.4 
L 185.335227 146.577555 
" style="fill:none;stroke:#b0b0b0;stroke-linecap:square;stroke-width:0.8;"/>
     </g>
     <g id="line2d_53">
      <g>
       <use style="stroke:#000000;stroke-width:0.8;" x="185.335227" xlink:href="#md108198d07" y="256.4"/>
      </g>
     </g>
     <g id="text_10">
      <!-- $\mathdefault{10^{1}}$ -->
      <g transform="translate(176.535227 270.998438)scale(0.1 -0.1)">
       <use transform="translate(0 0.684375)" xlink:href="#DejaVuSans-49"/>
       <use transform="translate(63.623047 0.684375)" xlink:href="#DejaVuSans-48"/>
       <use transform="translate(128.203125 38.965625)scale(0.7)" xlink:href="#DejaVuSans-49"/>
      </g>
     </g>
    </g>
    <g id="xtick_33">
     <g id="line2d_54">
      <path clip-path="url(#p43622629b7)" d="M 295.039773 256.4 
L 295.039773 146.577555 
" style="fill:none;stroke:#b0b0b0;stroke-linecap:square;stroke-width:0.8;"/>
     </g>
     <g id="line2d_55">
      <g>
       <use style="stroke:#000000;stroke-width:0.8;" x="295.039773" xlink:href="#md108198d07" y="256.4"/>
      </g>
     </g>
     <g id="text_11">
      <!-- $\mathdefault{10^{2}}$ -->
      <g transform="translate(286.239773 270.998438)scale(0.1 -0.1)">
       <use transform="translate(0 0.765625)" xlink:href="#DejaVuSans-49"/>
       <use transform="translate(63.623047 0.765625)" xlink:href="#DejaVuSans-48"/>
       <use transform="translate(128.203125 39.046875)scale(0.7)" xlink:href="#DejaVuSans-50"/>
      </g>
     </g>
    </g>
    <g id="xtick_34">
     <g id="line2d_56">
      <path clip-path="url(#p43622629b7)" d="M 404.744318 256.4 
L 404.744318 146.577555 
" style="fill:none;stroke:#b0b0b0;stroke-linecap:square;stroke-width:0.8;"/>
     </g>
     <g id="line2d_57">
      <g>
       <use style="stroke:#000000;stroke-width:0.8;" x="404.744318" xlink:href="#md108198d07" y="256.4"/>
      </g>
     </g>
     <g id="text_12">
      <!-- $\mathdefault{10^{3}}$ -->
      <g transform="translate(395.944318 270.998438)scale(0.1 -0.1)">
       <defs>
        <path d="M 40.578125 39.3125 
Q 47.65625 37.796875 51.625 33 
Q 55.609375 28.21875 55.609375 21.1875 
Q 55.609375 10.40625 48.1875 4.484375 
Q 40.765625 -1.421875 27.09375 -1.421875 
Q 22.515625 -1.421875 17.65625 -0.515625 
Q 12.796875 0.390625 7.625 2.203125 
L 7.625 11.71875 
Q 11.71875 9.328125 16.59375 8.109375 
Q 21.484375 6.890625 26.8125 6.890625 
Q 36.078125 6.890625 40.9375 10.546875 
Q 45.796875 14.203125 45.796875 21.1875 
Q 45.796875 27.640625 41.28125 31.265625 
Q 36.765625 34.90625 28.71875 34.90625 
L 20.21875 34.90625 
L 20.21875 43.015625 
L 29.109375 43.015625 
Q 36.375 43.015625 40.234375 45.921875 
Q 44.09375 48.828125 44.09375 54.296875 
Q 44.09375 59.90625 40.109375 62.90625 
Q 36.140625 65.921875 28.71875 65.921875 
Q 24.65625 65.921875 20.015625 65.03125 
Q 15.375 64.15625 9.8125 62.3125 
L 9.8125 71.09375 
Q 15.4375 72.65625 20.34375 73.4375 
Q 25.25 74.21875 29.59375 74.21875 
Q 40.828125 74.21875 47.359375 69.109375 
Q 53.90625 64.015625 53.90625 55.328125 
Q 53.90625 49.265625 50.4375 45.09375 
Q 46.96875 40.921875 40.578125 39.3125 
z
" id="DejaVuSans-51"/>
       </defs>
       <use transform="translate(0 0.765625)" xlink:href="#DejaVuSans-49"/>
       <use transform="translate(63.623047 0.765625)" xlink:href="#DejaVuSans-48"/>
       <use transform="translate(128.203125 39.046875)scale(0.7)" xlink:href="#DejaVuSans-51"/>
      </g>
     </g>
    </g>
    <g id="xtick_35">
     <g id="line2d_58">
      <g>
       <use style="stroke:#000000;stroke-width:0.6;" x="64.999213" xlink:href="#m71a750c1b1" y="256.4"/>
      </g>
     </g>
    </g>
    <g id="xtick_36">
     <g id="line2d_59">
      <g>
       <use style="stroke:#000000;stroke-width:0.6;" x="70.610877" xlink:href="#m71a750c1b1" y="256.4"/>
      </g>
     </g>
    </g>
    <g id="xtick_37">
     <g id="line2d_60">
      <g>
       <use style="stroke:#000000;stroke-width:0.6;" x="108.655041" xlink:href="#m71a750c1b1" y="256.4"/>
      </g>
     </g>
    </g>
    <g id="xtick_38">
     <g id="line2d_61">
      <g>
       <use style="stroke:#000000;stroke-width:0.6;" x="127.973052" xlink:href="#m71a750c1b1" y="256.4"/>
      </g>
     </g>
    </g>
    <g id="xtick_39">
     <g id="line2d_62">
      <g>
       <use style="stroke:#000000;stroke-width:0.6;" x="141.6794" xlink:href="#m71a750c1b1" y="256.4"/>
      </g>
     </g>
    </g>
    <g id="xtick_40">
     <g id="line2d_63">
      <g>
       <use style="stroke:#000000;stroke-width:0.6;" x="152.310868" xlink:href="#m71a750c1b1" y="256.4"/>
      </g>
     </g>
    </g>
    <g id="xtick_41">
     <g id="line2d_64">
      <g>
       <use style="stroke:#000000;stroke-width:0.6;" x="160.997411" xlink:href="#m71a750c1b1" y="256.4"/>
      </g>
     </g>
    </g>
    <g id="xtick_42">
     <g id="line2d_65">
      <g>
       <use style="stroke:#000000;stroke-width:0.6;" x="168.341778" xlink:href="#m71a750c1b1" y="256.4"/>
      </g>
     </g>
    </g>
    <g id="xtick_43">
     <g id="line2d_66">
      <g>
       <use style="stroke:#000000;stroke-width:0.6;" x="174.703758" xlink:href="#m71a750c1b1" y="256.4"/>
      </g>
     </g>
    </g>
    <g id="xtick_44">
     <g id="line2d_67">
      <g>
       <use style="stroke:#000000;stroke-width:0.6;" x="180.315423" xlink:href="#m71a750c1b1" y="256.4"/>
      </g>
     </g>
    </g>
    <g id="xtick_45">
     <g id="line2d_68">
      <g>
       <use style="stroke:#000000;stroke-width:0.6;" x="218.359586" xlink:href="#m71a750c1b1" y="256.4"/>
      </g>
     </g>
    </g>
    <g id="xtick_46">
     <g id="line2d_69">
      <g>
       <use style="stroke:#000000;stroke-width:0.6;" x="237.677598" xlink:href="#m71a750c1b1" y="256.4"/>
      </g>
     </g>
    </g>
    <g id="xtick_47">
     <g id="line2d_70">
      <g>
       <use style="stroke:#000000;stroke-width:0.6;" x="251.383945" xlink:href="#m71a750c1b1" y="256.4"/>
      </g>
     </g>
    </g>
    <g id="xtick_48">
     <g id="line2d_71">
      <g>
       <use style="stroke:#000000;stroke-width:0.6;" x="262.015414" xlink:href="#m71a750c1b1" y="256.4"/>
      </g>
     </g>
    </g>
    <g id="xtick_49">
     <g id="line2d_72">
      <g>
       <use style="stroke:#000000;stroke-width:0.6;" x="270.701956" xlink:href="#m71a750c1b1" y="256.4"/>
      </g>
     </g>
    </g>
    <g id="xtick_50">
     <g id="line2d_73">
      <g>
       <use style="stroke:#000000;stroke-width:0.6;" x="278.046324" xlink:href="#m71a750c1b1" y="256.4"/>
      </g>
     </g>
    </g>
    <g id="xtick_51">
     <g id="line2d_74">
      <g>
       <use style="stroke:#000000;stroke-width:0.6;" x="284.408304" xlink:href="#m71a750c1b1" y="256.4"/>
      </g>
     </g>
    </g>
    <g id="xtick_52">
     <g id="line2d_75">
      <g>
       <use style="stroke:#000000;stroke-width:0.6;" x="290.019968" xlink:href="#m71a750c1b1" y="256.4"/>
      </g>
     </g>
    </g>
    <g id="xtick_53">
     <g id="line2d_76">
      <g>
       <use style="stroke:#000000;stroke-width:0.6;" x="328.064132" xlink:href="#m71a750c1b1" y="256.4"/>
      </g>
     </g>
    </g>
    <g id="xtick_54">
     <g id="line2d_77">
      <g>
       <use style="stroke:#000000;stroke-width:0.6;" x="347.382143" xlink:href="#m71a750c1b1" y="256.4"/>
      </g>
     </g>
    </g>
    <g id="xtick_55">
     <g id="line2d_78">
      <g>
       <use style="stroke:#000000;stroke-width:0.6;" x="361.08849" xlink:href="#m71a750c1b1" y="256.4"/>
      </g>
     </g>
    </g>
    <g id="xtick_56">
     <g id="line2d_79">
      <g>
       <use style="stroke:#000000;stroke-width:0.6;" x="371.719959" xlink:href="#m71a750c1b1" y="256.4"/>
      </g>
     </g>
    </g>
    <g id="xtick_57">
     <g id="line2d_80">
      <g>
       <use style="stroke:#000000;stroke-width:0.6;" x="380.406502" xlink:href="#m71a750c1b1" y="256.4"/>
      </g>
     </g>
    </g>
    <g id="xtick_58">
     <g id="line2d_81">
      <g>
       <use style="stroke:#000000;stroke-width:0.6;" x="387.750869" xlink:href="#m71a750c1b1" y="256.4"/>
      </g>
     </g>
    </g>
    <g id="xtick_59">
     <g id="line2d_82">
      <g>
       <use style="stroke:#000000;stroke-width:0.6;" x="394.112849" xlink:href="#m71a750c1b1" y="256.4"/>
      </g>
     </g>
    </g>
    <g id="xtick_60">
     <g id="line2d_83">
      <g>
       <use style="stroke:#000000;stroke-width:0.6;" x="399.724513" xlink:href="#m71a750c1b1" y="256.4"/>
      </g>
     </g>
    </g>
   </g>
   <g id="matplotlib.axis_4">
    <g id="ytick_4">
     <g id="line2d_84">
      <path clip-path="url(#p43622629b7)" d="M 59.175 236.998405 
L 421.2 236.998405 
" style="fill:none;stroke:#b0b0b0;stroke-linecap:square;stroke-width:0.8;"/>
     </g>
     <g id="line2d_85">
      <g>
       <use style="stroke:#000000;stroke-width:0.8;" x="59.175" xlink:href="#m743c5834ad" y="236.998405"/>
      </g>
     </g>
     <g id="text_13">
      <!-- −150 -->
      <g transform="translate(24.707813 240.797624)scale(0.1 -0.1)">
       <defs>
        <path d="M 10.796875 72.90625 
L 49.515625 72.90625 
L 49.515625 64.59375 
L 19.828125 64.59375 
L 19.828125 46.734375 
Q 21.96875 47.46875 24.109375 47.828125 
Q 26.265625 48.1875 28.421875 48.1875 
Q 40.625 48.1875 47.75 41.5 
Q 54.890625 34.8125 54.890625 23.390625 
Q 54.890625 11.625 47.5625 5.09375 
Q 40.234375 -1.421875 26.90625 -1.421875 
Q 22.3125 -1.421875 17.546875 -0.640625 
Q 12.796875 0.140625 7.71875 1.703125 
L 7.71875 11.625 
Q 12.109375 9.234375 16.796875 8.0625 
Q 21.484375 6.890625 26.703125 6.890625 
Q 35.15625 6.890625 40.078125 11.328125 
Q 45.015625 15.765625 45.015625 23.390625 
Q 45.015625 31 40.078125 35.4375 
Q 35.15625 39.890625 26.703125 39.890625 
Q 22.75 39.890625 18.8125 39.015625 
Q 14.890625 38.140625 10.796875 36.28125 
z
" id="DejaVuSans-53"/>
       </defs>
       <use xlink:href="#DejaVuSans-8722"/>
       <use x="83.789062" xlink:href="#DejaVuSans-49"/>
       <use x="147.412109" xlink:href="#DejaVuSans-53"/>
       <use x="211.035156" xlink:href="#DejaVuSans-48"/>
      </g>
     </g>
    </g>
    <g id="ytick_5">
     <g id="line2d_86">
      <path clip-path="url(#p43622629b7)" d="M 59.175 207.911826 
L 421.2 207.911826 
" style="fill:none;stroke:#b0b0b0;stroke-linecap:square;stroke-width:0.8;"/>
     </g>
     <g id="line2d_87">
      <g>
       <use style="stroke:#000000;stroke-width:0.8;" x="59.175" xlink:href="#m743c5834ad" y="207.911826"/>
      </g>
     </g>
     <g id="text_14">
      <!-- −100 -->
      <g transform="translate(24.707813 211.711045)scale(0.1 -0.1)">
       <use xlink:href="#DejaVuSans-8722"/>
       <use x="83.789062" xlink:href="#DejaVuSans-49"/>
       <use x="147.412109" xlink:href="#DejaVuSans-48"/>
       <use x="211.035156" xlink:href="#DejaVuSans-48"/>
      </g>
     </g>
    </g>
    <g id="ytick_6">
     <g id="line2d_88">
      <path clip-path="url(#p43622629b7)" d="M 59.175 178.825246 
L 421.2 178.825246 
" style="fill:none;stroke:#b0b0b0;stroke-linecap:square;stroke-width:0.8;"/>
     </g>
     <g id="line2d_89">
      <g>
       <use style="stroke:#000000;stroke-width:0.8;" x="59.175" xlink:href="#m743c5834ad" y="178.825246"/>
      </g>
     </g>
     <g id="text_15">
      <!-- −50 -->
      <g transform="translate(31.070313 182.624465)scale(0.1 -0.1)">
       <use xlink:href="#DejaVuSans-8722"/>
       <use x="83.789062" xlink:href="#DejaVuSans-53"/>
       <use x="147.412109" xlink:href="#DejaVuSans-48"/>
      </g>
     </g>
    </g>
    <g id="ytick_7">
     <g id="line2d_90">
      <path clip-path="url(#p43622629b7)" d="M 59.175 149.738667 
L 421.2 149.738667 
" style="fill:none;stroke:#b0b0b0;stroke-linecap:square;stroke-width:0.8;"/>
     </g>
     <g id="line2d_91">
      <g>
       <use style="stroke:#000000;stroke-width:0.8;" x="59.175" xlink:href="#m743c5834ad" y="149.738667"/>
      </g>
     </g>
     <g id="text_16">
      <!-- 0 -->
      <g transform="translate(45.8125 153.537886)scale(0.1 -0.1)">
       <use xlink:href="#DejaVuSans-48"/>
      </g>
     </g>
    </g>
    <g id="text_17">
     <!-- Cambio de fase [°] -->
     <g transform="translate(18.628125 248.462215)rotate(-90)scale(0.1 -0.1)">
      <defs>
       <path d="M 64.40625 67.28125 
L 64.40625 56.890625 
Q 59.421875 61.53125 53.78125 63.8125 
Q 48.140625 66.109375 41.796875 66.109375 
Q 29.296875 66.109375 22.65625 58.46875 
Q 16.015625 50.828125 16.015625 36.375 
Q 16.015625 21.96875 22.65625 14.328125 
Q 29.296875 6.6875 41.796875 6.6875 
Q 48.140625 6.6875 53.78125 8.984375 
Q 59.421875 11.28125 64.40625 15.921875 
L 64.40625 5.609375 
Q 59.234375 2.09375 53.4375 0.328125 
Q 47.65625 -1.421875 41.21875 -1.421875 
Q 24.65625 -1.421875 15.125 8.703125 
Q 5.609375 18.84375 5.609375 36.375 
Q 5.609375 53.953125 15.125 64.078125 
Q 24.65625 74.21875 41.21875 74.21875 
Q 47.75 74.21875 53.53125 72.484375 
Q 59.328125 70.75 64.40625 67.28125 
z
" id="DejaVuSans-67"/>
       <path d="M 48.6875 27.296875 
Q 48.6875 37.203125 44.609375 42.84375 
Q 40.53125 48.484375 33.40625 48.484375 
Q 26.265625 48.484375 22.1875 42.84375 
Q 18.109375 37.203125 18.109375 27.296875 
Q 18.109375 17.390625 22.1875 11.75 
Q 26.265625 6.109375 33.40625 6.109375 
Q 40.53125 6.109375 44.609375 11.75 
Q 48.6875 17.390625 48.6875 27.296875 
z
M 18.109375 46.390625 
Q 20.953125 51.265625 25.265625 53.625 
Q 29.59375 56 35.59375 56 
Q 45.5625 56 51.78125 48.09375 
Q 58.015625 40.1875 58.015625 27.296875 
Q 58.015625 14.40625 51.78125 6.484375 
Q 45.5625 -1.421875 35.59375 -1.421875 
Q 29.59375 -1.421875 25.265625 0.953125 
Q 20.953125 3.328125 18.109375 8.203125 
L 18.109375 0 
L 9.078125 0 
L 9.078125 75.984375 
L 18.109375 75.984375 
z
" id="DejaVuSans-98"/>
       <path d="M 37.109375 75.984375 
L 37.109375 68.5 
L 28.515625 68.5 
Q 23.6875 68.5 21.796875 66.546875 
Q 19.921875 64.59375 19.921875 59.515625 
L 19.921875 54.6875 
L 34.71875 54.6875 
L 34.71875 47.703125 
L 19.921875 47.703125 
L 19.921875 0 
L 10.890625 0 
L 10.890625 47.703125 
L 2.296875 47.703125 
L 2.296875 54.6875 
L 10.890625 54.6875 
L 10.890625 58.5 
Q 10.890625 67.625 15.140625 71.796875 
Q 19.390625 75.984375 28.609375 75.984375 
z
" id="DejaVuSans-102"/>
       <path d="M 25 67.921875 
Q 21.09375 67.921875 18.40625 65.203125 
Q 15.71875 62.5 15.71875 58.59375 
Q 15.71875 54.734375 18.40625 52.078125 
Q 21.09375 49.421875 25 49.421875 
Q 28.90625 49.421875 31.59375 52.078125 
Q 34.28125 54.734375 34.28125 58.59375 
Q 34.28125 62.453125 31.5625 65.1875 
Q 28.859375 67.921875 25 67.921875 
z
M 25 74.21875 
Q 28.125 74.21875 31 73.015625 
Q 33.890625 71.828125 35.984375 69.578125 
Q 38.234375 67.390625 39.359375 64.59375 
Q 40.484375 61.8125 40.484375 58.59375 
Q 40.484375 52.15625 35.96875 47.6875 
Q 31.453125 43.21875 24.90625 43.21875 
Q 18.3125 43.21875 13.90625 47.609375 
Q 9.515625 52 9.515625 58.59375 
Q 9.515625 65.140625 14 69.671875 
Q 18.5 74.21875 25 74.21875 
z
" id="DejaVuSans-176"/>
      </defs>
      <use xlink:href="#DejaVuSans-67"/>
      <use x="69.824219" xlink:href="#DejaVuSans-97"/>
      <use x="131.103516" xlink:href="#DejaVuSans-109"/>
      <use x="228.515625" xlink:href="#DejaVuSans-98"/>
      <use x="291.992188" xlink:href="#DejaVuSans-105"/>
      <use x="319.775391" xlink:href="#DejaVuSans-111"/>
      <use x="380.957031" xlink:href="#DejaVuSans-32"/>
      <use x="412.744141" xlink:href="#DejaVuSans-100"/>
      <use x="476.220703" xlink:href="#DejaVuSans-101"/>
      <use x="537.744141" xlink:href="#DejaVuSans-32"/>
      <use x="569.53125" xlink:href="#DejaVuSans-102"/>
      <use x="604.736328" xlink:href="#DejaVuSans-97"/>
      <use x="666.015625" xlink:href="#DejaVuSans-115"/>
      <use x="718.115234" xlink:href="#DejaVuSans-101"/>
      <use x="779.638672" xlink:href="#DejaVuSans-32"/>
      <use x="811.425781" xlink:href="#DejaVuSans-91"/>
      <use x="850.439453" xlink:href="#DejaVuSans-176"/>
      <use x="900.439453" xlink:href="#DejaVuSans-93"/>
     </g>
    </g>
   </g>
   <g id="line2d_92">
    <path clip-path="url(#p43622629b7)" d="M 75.630682 151.884948 
L 78.955062 152.039578 
L 82.279442 152.205272 
L 85.603822 152.382805 
L 88.928202 152.573 
L 92.252583 152.776735 
L 95.576963 152.99494 
L 98.901343 153.228602 
L 102.225723 153.478769 
L 105.550103 153.746544 
L 108.874483 154.033093 
L 112.198864 154.339642 
L 115.523244 154.667475 
L 118.847624 155.017933 
L 122.172004 155.392413 
L 125.496384 155.792358 
L 128.820764 156.219254 
L 132.145145 156.674617 
L 135.469525 157.159982 
L 138.793905 157.676886 
L 142.118285 158.226848 
L 145.442665 158.811344 
L 148.767045 159.431779 
L 152.091426 160.089447 
L 155.415806 160.785496 
L 158.740186 161.520882 
L 162.064566 162.296313 
L 165.388946 163.112201 
L 168.713326 163.968598 
L 172.037707 164.865146 
L 175.362087 165.801011 
L 178.686467 166.774843 
L 182.010847 167.784726 
L 185.335227 168.828159 
L 188.659607 169.902039 
L 191.983988 171.002677 
L 195.308368 172.125836 
L 198.632748 173.266787 
L 201.957128 174.420397 
L 205.281508 175.581238 
L 208.605888 176.743707 
L 211.930269 177.902165 
L 215.254649 179.051066 
L 218.579029 180.185092 
L 221.903409 181.299272 
L 225.227789 182.389073 
L 228.552169 183.450485 
L 231.87655 184.480064 
L 235.20093 185.474962 
L 238.52531 186.432928 
L 241.84969 187.352289 
L 245.17407 188.231919 
L 248.49845 189.071192 
L 251.822831 189.869931 
L 255.147211 190.628347 
L 258.471591 191.346984 
L 261.795971 192.026663 
L 265.120351 192.668425 
L 268.444731 193.273485 
L 271.769112 193.843192 
L 275.093492 194.378981 
L 278.417872 194.882351 
L 281.742252 195.354832 
L 285.066632 195.797962 
L 288.391012 196.213269 
L 291.715393 196.602259 
L 295.039773 196.9664 
L 298.364153 197.307116 
L 301.688533 197.625782 
L 305.012913 197.923714 
L 308.337293 198.202172 
L 311.661674 198.462357 
L 314.986054 198.705408 
L 318.310434 198.932405 
L 321.634814 199.144369 
L 324.959194 199.342264 
L 328.283574 199.526997 
L 331.607955 199.699422 
L 334.932335 199.860343 
L 338.256715 200.010512 
L 341.581095 200.150637 
L 344.905475 200.28138 
L 348.229855 200.403361 
L 351.554236 200.517163 
L 354.878616 200.623328 
L 358.202996 200.722364 
L 361.527376 200.814748 
L 364.851756 200.900924 
L 368.176136 200.981305 
L 371.500517 201.056281 
L 374.824897 201.126214 
L 378.149277 201.191441 
L 381.473657 201.252278 
L 384.798037 201.309019 
L 388.122417 201.361941 
L 391.446798 201.4113 
L 394.771178 201.457334 
L 398.095558 201.500268 
L 401.419938 201.54031 
L 404.744318 201.577655 
" style="fill:none;stroke:#1f77b4;stroke-dasharray:5.55,2.4;stroke-dashoffset:0;stroke-width:1.5;"/>
   </g>
   <g id="line2d_93">
    <path clip-path="url(#p43622629b7)" d="M 75.630682 151.66913 
L 78.955062 151.808292 
L 82.279442 151.957432 
L 85.603822 152.11725 
L 88.928202 152.288496 
L 92.252583 152.471968 
L 95.576963 152.668514 
L 98.901343 152.879037 
L 102.225723 153.104495 
L 105.550103 153.345902 
L 108.874483 153.604333 
L 112.198864 153.880921 
L 115.523244 154.176861 
L 118.847624 154.493407 
L 122.172004 154.83187 
L 125.496384 155.193619 
L 128.820764 155.580072 
L 132.145145 155.992696 
L 135.469525 156.432991 
L 138.793905 156.902484 
L 142.118285 157.402714 
L 145.442665 157.935212 
L 148.767045 158.501479 
L 152.091426 159.102962 
L 155.415806 159.741018 
L 158.740186 160.416876 
L 162.064566 161.131598 
L 165.388946 161.88603 
L 168.713326 162.680743 
L 172.037707 163.515987 
L 175.362087 164.391624 
L 178.686467 165.307076 
L 182.010847 166.261268 
L 185.335227 167.252585 
L 188.659607 168.278833 
L 191.983988 169.337224 
L 195.308368 170.424373 
L 198.632748 171.536323 
L 201.957128 172.668592 
L 205.281508 173.816247 
L 208.605888 174.974 
L 211.930269 176.136323 
L 215.254649 177.297578 
L 218.579029 178.452154 
L 221.903409 179.594599 
L 225.227789 180.719746 
L 228.552169 181.822823 
L 231.87655 182.899538 
L 235.20093 183.946147 
L 238.52531 184.959488 
L 241.84969 185.937 
L 245.17407 186.876711 
L 248.49845 187.777213 
L 251.822831 188.637627 
L 255.147211 189.457547 
L 258.471591 190.236988 
L 261.795971 190.976329 
L 265.120351 191.676251 
L 268.444731 192.337687 
L 271.769112 192.961767 
L 275.093492 193.549776 
L 278.417872 194.103107 
L 281.742252 194.623231 
L 285.066632 195.111663 
L 288.391012 195.569941 
L 291.715393 195.999599 
L 295.039773 196.402157 
L 298.364153 196.779104 
L 301.688533 197.131888 
L 305.012913 197.46191 
L 308.337293 197.770516 
L 311.661674 198.058998 
L 314.986054 198.328587 
L 318.310434 198.580454 
L 321.634814 198.815711 
L 324.959194 199.035407 
L 328.283574 199.240538 
L 331.607955 199.43204 
L 334.932335 199.610794 
L 338.256715 199.77763 
L 341.581095 199.933327 
L 344.905475 200.078616 
L 348.229855 200.214182 
L 351.554236 200.340668 
L 354.878616 200.458674 
L 358.202996 200.568765 
L 361.527376 200.671465 
L 364.851756 200.767269 
L 368.176136 200.856635 
L 371.500517 200.939995 
L 374.824897 201.017749 
L 378.149277 201.090274 
L 381.473657 201.157919 
L 384.798037 201.221012 
L 388.122417 201.279859 
L 391.446798 201.334744 
L 394.771178 201.385933 
L 398.095558 201.433676 
L 401.419938 201.478204 
L 404.744318 201.519732 
" style="fill:none;stroke:#ff7f0e;stroke-dasharray:5.55,2.4;stroke-dashoffset:0;stroke-width:1.5;"/>
   </g>
   <g id="line2d_94">
    <path clip-path="url(#p43622629b7)" d="M 75.630682 151.569484 
L 78.955062 151.701673 
L 82.279442 151.843388 
L 85.603822 151.995309 
L 88.928202 152.158168 
L 92.252583 152.332744 
L 95.576963 152.519873 
L 98.901343 152.720447 
L 102.225723 152.935418 
L 105.550103 153.165806 
L 108.874483 153.412698 
L 112.198864 153.677251 
L 115.523244 153.9607 
L 118.847624 154.264361 
L 122.172004 154.589631 
L 125.496384 154.937994 
L 128.820764 155.311025 
L 132.145145 155.710391 
L 135.469525 156.137853 
L 138.793905 156.595268 
L 142.118285 157.084588 
L 145.442665 157.60786 
L 148.767045 158.167222 
L 152.091426 158.764898 
L 155.415806 159.403189 
L 158.740186 160.084466 
L 162.064566 160.811151 
L 165.388946 161.5857 
L 168.713326 162.410582 
L 172.037707 163.288246 
L 175.362087 164.221089 
L 178.686467 165.211419 
L 182.010847 166.2614 
L 185.335227 167.373008 
L 188.659607 168.547969 
L 191.983988 169.7877 
L 195.308368 171.093243 
L 198.632748 172.465205 
L 201.957128 173.903695 
L 205.281508 175.408273 
L 208.605888 176.977907 
L 211.930269 178.610942 
L 215.254649 180.305096 
L 218.579029 182.057458 
L 221.903409 183.864524 
L 225.227789 185.722243 
L 228.552169 187.626073 
L 231.87655 189.571062 
L 235.20093 191.551925 
L 238.52531 193.563118 
L 241.84969 195.598914 
L 245.17407 197.653464 
L 248.49845 199.720838 
L 251.822831 201.795067 
L 255.147211 203.87016 
L 258.471591 205.940126 
L 261.795971 207.998987 
L 265.120351 210.040799 
L 268.444731 212.059685 
L 271.769112 214.049876 
L 275.093492 216.005771 
L 278.417872 217.922001 
L 281.742252 219.793509 
L 285.066632 221.615629 
L 288.391012 223.38416 
L 291.715393 225.095433 
L 295.039773 226.746365 
L 298.364153 228.334489 
L 301.688533 229.857969 
L 305.012913 231.315598 
L 308.337293 232.706767 
L 311.661674 234.031432 
L 314.986054 235.290063 
L 318.310434 236.483581 
L 321.634814 237.613303 
L 324.959194 238.680872 
L 328.283574 239.688197 
L 331.607955 240.637395 
L 334.932335 241.530737 
L 338.256715 242.370597 
L 341.581095 243.159416 
L 344.905475 243.899657 
L 348.229855 244.593785 
L 351.554236 245.244233 
L 354.878616 245.853388 
L 358.202996 246.423572 
L 361.527376 246.957034 
L 364.851756 247.455936 
L 368.176136 247.922351 
L 371.500517 248.35826 
L 374.824897 248.765548 
L 378.149277 249.146002 
L 381.473657 249.501317 
L 384.798037 249.833093 
L 388.122417 250.142841 
L 391.446798 250.431984 
L 394.771178 250.701859 
L 398.095558 250.953723 
L 401.419938 251.188758 
L 404.744318 251.408071 
" style="fill:none;stroke:#2ca02c;stroke-dasharray:5.55,2.4;stroke-dashoffset:0;stroke-width:1.5;"/>
   </g>
   <g id="patch_9">
    <path d="M 59.175 256.4 
L 59.175 146.577555 
" style="fill:none;stroke:#000000;stroke-linecap:square;stroke-linejoin:miter;stroke-width:0.8;"/>
   </g>
   <g id="patch_10">
    <path d="M 421.2 256.4 
L 421.2 146.577555 
" style="fill:none;stroke:#000000;stroke-linecap:square;stroke-linejoin:miter;stroke-width:0.8;"/>
   </g>
   <g id="patch_11">
    <path d="M 59.175 256.4 
L 421.2 256.4 
" style="fill:none;stroke:#000000;stroke-linecap:square;stroke-linejoin:miter;stroke-width:0.8;"/>
   </g>
   <g id="patch_12">
    <path d="M 59.175 146.577555 
L 421.2 146.577555 
" style="fill:none;stroke:#000000;stroke-linecap:square;stroke-linejoin:miter;stroke-width:0.8;"/>
   </g>
  </g>
 </g>
 <defs>
  <clipPath id="pfa0b89189d">
   <rect height="109.822445" width="362.025" x="59.175" y="10.8"/>
  </clipPath>
  <clipPath id="p43622629b7">
   <rect height="109.822445" width="362.025" x="59.175" y="146.577555"/>
  </clipPath>
 </defs>
</svg>
